<svg width="2128" height="1362" viewBox="0 0 2128 1362" fill="none" xmlns="http://www.w3.org/2000/svg">
<path d="M197.516 912.297H110.083V949.244H197.516V912.297Z" fill="#EBEBEB"/>
<path d="M148.748 958.886H61.3152V995.833H148.748V958.886Z" fill="#EBEBEB"/>
<path d="M1322.48 562.236H1235.05V599.184H1322.48V562.236Z" fill="#EBEBEB"/>
<path d="M1273.72 608.825H1186.28V645.772H1273.72V608.825Z" fill="#EBEBEB"/>
<path d="M1225.15 562.236H1137.71V599.184H1225.15V562.236Z" fill="#EBEBEB"/>
<path d="M2066.58 958.886H1979.15V995.833H2066.58V958.886Z" fill="#EBEBEB"/>
<path d="M2017.82 54.5792H1930.38V91.5267H2017.82V54.5792Z" fill="#EBEBEB"/>
<path d="M2066.58 101.168H1979.15V138.116H2066.58V101.168Z" fill="#EBEBEB"/>
<path d="M197.516 54.5792H110.083V91.5267H197.516V54.5792Z" fill="#EBEBEB"/>
<path d="M529.779 604.632L508.516 651.452L522.879 658.055C524.931 659.004 526.68 660.503 527.933 662.386C529.186 664.268 529.894 666.46 529.978 668.72C530.098 671.285 530.352 673.842 530.737 676.38C531.09 678.61 530.821 680.893 529.959 682.979C529.097 685.065 527.675 686.872 525.85 688.201L513.039 697.38L542.987 739.181L555.798 730.035C557.64 728.724 559.809 727.949 562.065 727.797C564.321 727.646 566.575 728.123 568.576 729.177C570.847 730.406 573.183 731.508 575.576 732.479C577.693 733.284 579.545 734.661 580.927 736.457C582.308 738.252 583.165 740.395 583.401 742.648L584.92 758.332L636.098 753.28L634.547 737.563C634.343 735.307 634.769 733.039 635.778 731.01C636.786 728.982 638.337 727.273 640.259 726.073C641.315 725.413 642.372 724.686 643.396 723.96C644.419 723.233 645.443 722.474 646.433 721.682C648.171 720.245 650.275 719.321 652.508 719.012C654.741 718.703 657.017 719.021 659.079 719.932L673.508 726.535L694.739 679.715L680.376 673.112C678.324 672.162 676.574 670.663 675.321 668.781C674.068 666.899 673.361 664.706 673.277 662.447C673.166 659.893 672.924 657.348 672.551 654.819C672.197 652.59 672.466 650.307 673.329 648.221C674.191 646.135 675.613 644.328 677.437 642.999L690.249 633.82L660.268 592.019L647.49 601.198C645.642 602.497 643.471 603.262 641.217 603.407C638.962 603.553 636.712 603.074 634.712 602.023C632.456 600.836 630.129 599.789 627.745 598.886C625.626 598.084 623.771 596.708 622.389 594.912C621.008 593.116 620.152 590.971 619.92 588.717L618.368 573L567.189 578.052L568.741 593.769C568.932 596.014 568.5 598.268 567.492 600.284C566.484 602.3 564.94 603.998 563.029 605.193C561.939 605.886 560.883 606.613 559.727 607.339L556.689 609.617C554.941 611.059 552.827 611.987 550.582 612.296C548.337 612.605 546.05 612.283 543.977 611.367L529.779 604.632ZM577.095 631.046C583.867 626.187 591.929 623.445 600.26 623.169C608.591 622.893 616.817 625.094 623.897 629.494C630.976 633.894 636.591 640.295 640.032 647.888C643.472 655.48 644.583 663.923 643.224 672.147C641.865 680.371 638.097 688.007 632.397 694.089C626.696 700.171 619.32 704.425 611.201 706.313C603.082 708.202 594.586 707.639 586.787 704.697C578.987 701.755 572.236 696.566 567.387 689.786C560.946 680.718 558.351 669.471 560.17 658.498C561.988 647.525 568.072 637.716 577.095 631.211V631.046Z" fill="#EBEBEB"/>
<path d="M1958.25 209.336L1936.72 221.784L1940.52 228.388C1941.07 229.339 1941.34 230.423 1941.3 231.52C1941.27 232.616 1940.93 233.681 1940.32 234.595C1939.62 235.653 1938.99 236.756 1938.44 237.897C1937.96 238.882 1937.21 239.713 1936.29 240.297C1935.36 240.88 1934.29 241.193 1933.19 241.199H1925.73V266.062H1933.32C1934.42 266.068 1935.49 266.38 1936.42 266.964C1937.35 267.547 1938.09 268.378 1938.57 269.364C1939.13 270.501 1939.76 271.604 1940.46 272.665C1941.06 273.58 1941.4 274.645 1941.44 275.741C1941.47 276.837 1941.2 277.922 1940.65 278.873L1936.86 285.476L1958.38 297.891L1962.18 291.288C1962.75 290.346 1963.56 289.58 1964.53 289.073C1965.51 288.566 1966.6 288.338 1967.7 288.415H1971.33C1972.42 288.333 1973.51 288.559 1974.48 289.066C1975.45 289.574 1976.25 290.344 1976.81 291.288L1980.64 297.891L2002.17 285.476L1998.37 278.873C1997.83 277.927 1997.56 276.848 1997.59 275.757C1997.63 274.667 1997.96 273.608 1998.57 272.698C1999.24 271.632 1999.86 270.53 2000.42 269.397C2000.9 268.409 2001.65 267.576 2002.59 266.993C2003.52 266.41 2004.6 266.099 2005.7 266.095H2013.29V241.232H2005.7C2004.6 241.221 2003.53 240.906 2002.59 240.324C2001.66 239.741 2000.91 238.913 2000.42 237.93C1999.88 236.789 1999.26 235.686 1998.57 234.628C1997.96 233.714 1997.62 232.649 1997.59 231.553C1997.55 230.456 1997.82 229.372 1998.37 228.421L2002.17 221.817L1980.64 209.369L1976.81 215.973C1976.25 216.906 1975.45 217.668 1974.49 218.175C1973.53 218.682 1972.44 218.914 1971.36 218.845H1967.7C1966.6 218.923 1965.5 218.692 1964.52 218.179C1963.55 217.665 1962.74 216.89 1962.18 215.94L1958.25 209.336ZM1969.38 233.109C1973.41 233.109 1977.35 234.304 1980.7 236.543C1984.05 238.781 1986.66 241.963 1988.2 245.686C1989.74 249.408 1990.15 253.504 1989.36 257.456C1988.57 261.408 1986.63 265.038 1983.78 267.887C1980.94 270.736 1977.31 272.676 1973.35 273.463C1969.4 274.249 1965.31 273.845 1961.58 272.303C1957.86 270.761 1954.68 268.15 1952.44 264.8C1950.2 261.45 1949.01 257.511 1949.01 253.482C1949 250.805 1949.53 248.154 1950.55 245.68C1951.57 243.207 1953.07 240.959 1954.96 239.067C1956.86 237.174 1959.1 235.674 1961.58 234.651C1964.05 233.629 1966.7 233.105 1969.38 233.109Z" fill="#EBEBEB"/>
<path d="M117.611 317.702L132.701 337.513L138.743 332.858C139.618 332.198 140.659 331.796 141.75 331.697C142.841 331.598 143.938 331.805 144.918 332.297C146.04 332.825 147.196 333.287 148.219 333.716C149.255 334.069 150.172 334.705 150.866 335.551C151.56 336.396 152.004 337.419 152.149 338.504L153.139 346.032L177.804 342.73L176.813 335.202C176.677 334.118 176.843 333.018 177.291 332.022C177.74 331.026 178.454 330.173 179.356 329.556C180.387 328.864 181.379 328.114 182.327 327.311C183.151 326.592 184.158 326.115 185.237 325.935C186.315 325.754 187.422 325.876 188.436 326.287L195.568 329.16L205.11 306.047L198.044 303.141C197.039 302.705 196.173 301.999 195.544 301.102C194.915 300.204 194.546 299.15 194.478 298.057C194.478 297.462 194.478 296.868 194.28 296.241C194.082 295.613 194.115 295.052 194.016 294.424C193.796 293.357 193.88 292.249 194.26 291.227C194.639 290.206 195.298 289.311 196.162 288.646L202.171 284.255L187.082 264.444L181.007 269.066C180.132 269.724 179.093 270.128 178.003 270.233C176.914 270.338 175.816 270.14 174.832 269.661C173.758 269.129 172.655 268.655 171.53 268.241C170.499 267.881 169.586 267.244 168.893 266.399C168.2 265.555 167.753 264.535 167.601 263.453L166.611 255.892L141.946 259.194L142.936 266.755C143.074 267.834 142.909 268.931 142.46 269.922C142.011 270.913 141.296 271.76 140.394 272.368C139.373 273.072 138.392 273.833 137.455 274.647C136.623 275.363 135.609 275.835 134.525 276.009C133.441 276.184 132.329 276.055 131.314 275.637L124.281 272.731L114.739 295.679L121.772 298.618C122.779 299.042 123.647 299.74 124.278 300.633C124.908 301.526 125.275 302.578 125.338 303.67L125.536 305.486C125.536 306.113 125.536 306.707 125.833 307.302C126.044 308.377 125.952 309.49 125.567 310.516C125.183 311.543 124.52 312.442 123.654 313.113L117.611 317.702ZM139.734 303.604C139.218 299.608 139.9 295.549 141.691 291.94C143.482 288.331 146.304 285.334 149.798 283.329C153.293 281.323 157.303 280.399 161.323 280.673C165.343 280.947 169.191 282.406 172.381 284.867C175.572 287.328 177.961 290.679 179.246 294.498C180.532 298.316 180.656 302.43 179.604 306.319C178.551 310.208 176.369 313.698 173.334 316.347C170.298 318.997 166.545 320.686 162.549 321.202C159.896 321.545 157.2 321.362 154.617 320.663C152.035 319.964 149.615 318.763 147.496 317.129C145.377 315.495 143.601 313.459 142.269 311.139C140.938 308.818 140.076 306.257 139.734 303.604Z" fill="#EBEBEB"/>
<path d="M822.652 98.4937H555.039V423.097H822.652V98.4937Z" fill="#EBEBEB"/>
<path d="M792.077 128.111H585.614V393.479H792.077V128.111Z" fill="white"/>
<path d="M593.67 128.111H585.614V393.479H593.67V128.111Z" fill="#DBDBDB"/>
<path d="M830.708 98.4937H822.652V423.097H830.708V98.4937Z" fill="#DBDBDB"/>
<path d="M703.489 164.695H654.82V309.745H703.489V164.695Z" fill="#DBDBDB"/>
<path d="M763.351 263.453H633.556V334.509H763.351V263.453Z" stroke="#EBEBEB" stroke-miterlimit="10"/>
<path d="M1564.81 98.4937H1297.19V423.097H1564.81V98.4937Z" fill="#EBEBEB"/>
<path d="M1534.23 128.111H1327.77V393.479H1534.23V128.111Z" fill="white"/>
<path d="M1335.82 128.111H1327.77V393.479H1335.82V128.111Z" fill="#DBDBDB"/>
<path d="M1572.86 98.4937H1564.81V423.097H1572.86V98.4937Z" fill="#DBDBDB"/>
<path d="M1445.64 164.695H1396.97V309.745H1445.64V164.695Z" fill="#DBDBDB"/>
<path d="M1505.5 263.453H1375.71V334.509H1505.5V263.453Z" stroke="#EBEBEB" stroke-miterlimit="10"/>
<path d="M1193.71 98.4937H926.098V423.097H1193.71V98.4937Z" fill="#EBEBEB"/>
<path d="M1163.17 128.111H956.707V393.479H1163.17V128.111Z" fill="white"/>
<path d="M964.763 128.111H956.707V393.479H964.763V128.111Z" fill="#DBDBDB"/>
<path d="M1201.8 98.4937H1193.75V423.097H1201.8V98.4937Z" fill="#DBDBDB"/>
<path d="M1081.65 196.69H1039.95V302.151H1081.65V196.69Z" fill="#EBEBEB"/>
<path d="M1125.56 260.779H1013.53V333.485H1125.56V260.779Z" stroke="#DBDBDB" stroke-miterlimit="10"/>
<path d="M1063.95 1361.05C1636 1361.05 2099.73 1324.55 2099.73 1279.53C2099.73 1234.5 1636 1198 1063.95 1198C491.901 1198 28.1646 1234.5 28.1646 1279.53C28.1646 1324.55 491.901 1361.05 1063.95 1361.05Z" fill="#EBEBEB"/>
<path d="M561.048 847.349H456.544V1073.13H561.048V847.349Z" fill="#4F46E4"/>
<g opacity="0.1">
<path d="M561.081 847.349H537.142V1073.13H561.081V847.349Z" fill="black"/>
</g>
<path d="M698.734 761.997H594.231V1073.13H698.734V761.997Z" fill="#4F46E4"/>
<g opacity="0.1">
<path d="M698.767 761.997H674.829V1073.13H698.767V761.997Z" fill="black"/>
</g>
<path d="M423.658 898.198H319.155V1073.13H423.658V898.198Z" fill="#4F46E4"/>
<g opacity="0.1">
<path d="M423.658 898.198H399.72V1073.13H423.658V898.198Z" fill="black"/>
</g>
<path d="M836.454 648.381H731.951V1073.13H836.454V648.381Z" fill="#4F46E4"/>
<g opacity="0.1">
<path d="M836.453 648.381H812.515V1073.13H836.453V648.381Z" fill="black"/>
</g>
<path d="M282.109 1005.31V961.758C282.109 961.758 662.777 936.697 816.609 612.061L831.897 615.099C831.897 615.099 729.771 947.956 282.109 1005.31Z" fill="#37474F"/>
<path d="M846.161 626.028L798.086 613.745L837.939 583.17L846.161 626.028Z" fill="#37474F"/>
<path d="M0 1072.44L265.996 1071.64L531.991 1071.35L1063.95 1070.78L1595.91 1071.35L1861.9 1071.64L2127.9 1072.44L1861.9 1073.26L1595.91 1073.53L1063.95 1074.09L531.991 1073.53L265.996 1073.26L0 1072.44Z" fill="#263238"/>
<path d="M1992.82 874.392C1992.82 874.392 2023.69 763.648 2048.33 726.04C2072.96 688.432 2118.89 647.126 2118.89 647.126C2118.89 647.126 2117.8 817.831 1992.82 874.392Z" fill="#4F46E4"/>
<path d="M1995.07 872.477C2005.46 855.142 2014.85 837.228 2023.2 818.822C2026.74 799.04 2031.86 779.573 2038.52 760.611C2038.52 760.248 2039.15 760.446 2039.08 760.809C2034.99 778.276 2030.2 795.643 2025.87 813.077C2038.35 786.134 2050.17 758.828 2065 733.338C2068.43 721.033 2073.23 709.15 2079.3 697.909C2079.3 697.579 2080.02 697.909 2079.86 698.107C2076.1 706.761 2072.88 715.638 2070.22 724.687C2077.23 713.329 2085.06 702.502 2093.66 692.296C2094.22 691.668 2095.28 692.296 2094.75 693.055C2074.94 718.38 2061.24 747.172 2048.19 776.327C2062.22 761.116 2075.16 744.941 2086.92 727.922C2086.92 727.922 2087.29 727.922 2087.19 728.121C2074.93 747.192 2061.05 765.176 2045.72 781.874C2036.24 803.237 2026.9 824.798 2015.57 845.006C2038.19 825.888 2055.59 801.124 2072.83 777.252C2072.91 777.16 2073.03 777.103 2073.15 777.09C2073.28 777.077 2073.41 777.109 2073.51 777.181C2073.61 777.253 2073.69 777.359 2073.72 777.481C2073.75 777.603 2073.74 777.733 2073.68 777.846C2056.45 804.03 2038.62 828.695 2013.82 848.109C2008.81 857.03 2003.3 865.662 1997.31 873.963C1997.12 874.26 1996.81 874.468 1996.46 874.539C1996.11 874.61 1995.74 874.539 1995.45 874.342C1995.15 874.145 1994.94 873.838 1994.87 873.488C1994.8 873.138 1994.87 872.774 1995.07 872.477Z" fill="#263238"/>
<path d="M1976.25 874.524C1976.25 874.524 2031.72 772.431 2015.6 673.442C1999.49 574.453 1982.26 539.189 1982.26 539.189C1982.26 539.189 1895.05 693.154 1976.25 874.524Z" fill="#4F46E4"/>
<path d="M1953.5 714.022C1958.19 742.113 1965.35 769.735 1974.89 796.567C1975.06 760.247 1975.75 723.927 1976.71 687.607C1970.47 665.488 1966.96 642.691 1966.24 619.721C1966.24 619.061 1967.23 619.094 1967.27 619.721C1969.01 639.357 1972.27 658.829 1977.01 677.966C1977.84 647.985 1978.81 618.015 1979.91 588.057C1979.91 587.952 1979.95 587.851 1980.03 587.776C1980.1 587.702 1980.2 587.66 1980.31 587.66C1980.41 587.66 1980.51 587.702 1980.59 587.776C1980.66 587.851 1980.7 587.952 1980.7 588.057C1980.7 634.844 1980.7 681.664 1980.37 728.484C1987.13 710.388 1992.49 691.799 1996.39 672.881C1996.39 672.683 1996.72 672.881 1996.68 672.881C1995.03 694.772 1988.4 715.805 1980.18 736.177C1979.94 766.124 1979.61 796.039 1978.95 825.954C1988.33 794.157 1998.37 763.219 2001.08 729.705C2001.1 729.631 2001.15 729.567 2001.21 729.521C2001.27 729.475 2001.35 729.45 2001.42 729.45C2001.5 729.45 2001.58 729.475 2001.64 729.521C2001.7 729.567 2001.75 729.631 2001.77 729.705C2001.04 766.752 1991.5 804.393 1979.25 839.26C1979.13 839.61 1978.91 839.919 1978.62 840.152C1978.36 851.081 1978.06 862.01 1977.67 872.939C1977.62 873.224 1977.47 873.484 1977.25 873.671C1977.03 873.858 1976.75 873.96 1976.46 873.96C1976.17 873.96 1975.89 873.858 1975.67 873.671C1975.45 873.484 1975.3 873.224 1975.26 872.939C1974.84 850.552 1974.65 828.177 1974.69 805.812C1962.62 776.525 1955.24 745.512 1952.84 713.923C1952.85 713.835 1952.9 713.756 1952.97 713.704C1953.04 713.651 1953.13 713.629 1953.22 713.642C1953.3 713.655 1953.38 713.702 1953.44 713.774C1953.49 713.845 1953.51 713.934 1953.5 714.022Z" fill="#263238"/>
<path d="M1957.29 698.239C1959.23 707.127 1960.52 716.142 1961.16 725.215C1961.16 725.512 1960.7 725.545 1960.63 725.215C1958.48 716.374 1956.96 707.393 1956.07 698.338C1956.01 697.678 1957.16 697.546 1957.29 698.239Z" fill="#263238"/>
<path d="M1989.72 623.585C1989.72 623.287 1990.25 623.386 1990.25 623.585C1990.16 629.878 1989.23 636.131 1987.47 642.174C1987.44 642.275 1987.37 642.359 1987.28 642.408C1987.19 642.458 1987.08 642.469 1986.98 642.438C1986.88 642.407 1986.79 642.338 1986.74 642.245C1986.69 642.152 1986.68 642.043 1986.71 641.943C1987.9 635.9 1988.66 629.627 1989.72 623.585Z" fill="#263238"/>
<path d="M1962.05 880.269C1962.05 880.269 1950.36 774.313 1913.12 725.776C1875.87 677.239 1822.08 657.131 1822.08 657.131C1822.08 657.131 1866.86 840.713 1962.05 880.269Z" fill="#4F46E4"/>
<path d="M1894.86 797.195C1909.47 814.052 1925.48 829.638 1942.73 843.784C1933.93 822.982 1924.13 802.665 1913.35 782.832C1894.39 770.153 1875.51 756.946 1862.4 737.927C1862.36 737.865 1862.35 737.793 1862.37 737.723C1862.38 737.653 1862.42 737.59 1862.47 737.546C1862.53 737.502 1862.6 737.48 1862.67 737.483C1862.74 737.486 1862.81 737.515 1862.86 737.564C1876.43 754.073 1893.34 766.62 1910.94 778.441C1894.63 748.568 1876.49 719.732 1856.62 692.098C1856.55 691.952 1856.52 691.785 1856.56 691.625C1856.6 691.466 1856.69 691.324 1856.82 691.225C1856.95 691.126 1857.11 691.077 1857.27 691.085C1857.44 691.094 1857.59 691.16 1857.71 691.272C1869.45 705.573 1880.4 720.509 1890.5 736.012C1886.17 725.116 1882.41 713.857 1878.02 702.994C1878.01 702.938 1878.02 702.882 1878.05 702.834C1878.08 702.786 1878.12 702.748 1878.18 702.726C1878.23 702.704 1878.28 702.699 1878.34 702.711C1878.39 702.724 1878.44 702.753 1878.48 702.796C1886.32 716.392 1892.48 730.895 1896.8 745.983C1910.54 768.01 1922.68 790.995 1933.12 814.761C1930.25 799.044 1927.18 783.393 1923.48 767.809C1923.48 767.511 1923.91 767.379 1924.01 767.809C1929.68 784.861 1933.58 802.454 1935.63 820.308C1942.06 835.496 1947.83 850.905 1952.94 866.533C1952.94 866.963 1952.44 867.227 1952.28 866.798C1949.74 860.194 1947.11 853.744 1944.38 847.449C1944.38 847.449 1944.15 847.449 1944.02 847.449C1925.6 833.317 1907.7 816.775 1894.82 797.327C1894.63 797.195 1894.76 797.096 1894.86 797.195Z" fill="#263238"/>
<path d="M1848.4 715.838C1852.26 719.14 1855.86 722.441 1859.63 725.743C1863.16 728.493 1866.47 731.518 1869.53 734.79C1869.53 734.79 1869.53 735.12 1869.33 735.054C1865.16 732.722 1861.32 729.822 1857.94 726.437C1854.28 723.319 1850.89 719.894 1847.81 716.201C1847.74 716.003 1848.14 715.475 1848.4 715.838Z" fill="#263238"/>
<path d="M2046.87 869.34L2043.01 919.825L2031.39 1072.44H1930.12L1918.5 919.825L1914.63 869.34H2046.87Z" fill="#455A64"/>
<path d="M2046.87 869.34L2043.01 919.825H1918.5L1914.63 869.34H2046.87Z" fill="#37474F"/>
<path d="M1905.62 883.274H2055.85V844.576H1905.62V883.274Z" fill="#455A64"/>
<path d="M614.009 1222.93C607.405 1225.11 413.555 1223.43 406.192 1218.67C403.418 1216.89 401.998 1188.69 401.305 1154.52C401.14 1147.16 386.513 1028.32 386.513 1028.32L516.011 1029.08L526.18 1155.28C526.18 1155.28 600.042 1189.09 607.537 1195.13C615.033 1201.17 620.811 1220.66 614.009 1222.93Z" fill="#EB9481"/>
<path d="M614.009 1222.93C607.405 1225.11 413.555 1223.43 406.192 1218.67C404.012 1217.25 402.659 1199.42 401.833 1175.16C434.852 1180.14 547.114 1196.78 572.01 1194.34C588.882 1192.69 578.019 1182.29 565.901 1173.8C584.755 1182.78 603.938 1192.23 607.537 1195.13C614.901 1201.21 620.811 1220.66 614.009 1222.93Z" fill="#263238"/>
<path d="M202.172 548.468C202.172 548.468 349.367 806.011 353.164 824.105C359.042 851.774 393.15 1153.36 393.15 1153.36L538.034 1152.47C538.034 1152.47 509.242 883.207 484.743 803.732C471.337 760.346 400.81 642.735 367.759 584.656C364.82 579.472 365.678 555.732 365.678 555.732L202.172 548.468Z" fill="#455A64"/>
<path d="M524.067 1128.2C501.582 1127.77 433.597 1125.89 403.649 1128.2C403.418 1128.2 403.418 1128.6 403.649 1128.63C413.918 1130.22 501.582 1129.16 524.067 1128.63C524.111 1128.68 524.17 1128.72 524.235 1128.74C524.3 1128.75 524.369 1128.75 524.433 1128.73C524.496 1128.7 524.551 1128.66 524.589 1128.61C524.628 1128.55 524.648 1128.49 524.648 1128.42C524.648 1128.35 524.628 1128.28 524.589 1128.23C524.551 1128.17 524.496 1128.13 524.433 1128.11C524.369 1128.09 524.3 1128.08 524.235 1128.1C524.17 1128.12 524.111 1128.15 524.067 1128.2Z" fill="#263238"/>
<path d="M227.497 572.241C237.171 587.825 247.308 603.08 257.213 618.466C267.119 633.853 277.024 649.372 286.665 664.923C306.08 696.026 325.044 727.394 343.556 759.025C352.542 773.608 360.2 788.968 366.438 804.921C372.146 820.911 376.379 837.39 379.084 854.151C381.956 870.991 383.772 887.962 385.456 904.934C387.283 923.028 389.077 941.1 390.838 959.15C394.503 996.13 402.824 1061.77 406.522 1098.75C406.951 1103.27 407.38 1107.83 407.777 1112.35C407.777 1113.02 406.654 1113.15 406.588 1112.35C402.428 1075.61 394.404 1010 390.673 973.281C388.802 954.989 386.942 936.675 385.093 918.339C383.376 901.301 381.791 884.264 379.315 867.293C377.085 850.545 373.597 833.989 368.881 817.765C363.69 800.983 356.635 784.836 347.848 769.624C330.118 738.125 311.297 707.154 292.477 676.248C273.656 645.343 254.373 614.042 234.496 583.401C232.053 579.604 229.577 575.873 227.001 572.142C226.836 572.208 227.331 571.944 227.497 572.241Z" fill="#263238"/>
<path d="M260.383 1233.43C253.251 1232.9 69.9992 1156.04 64.9474 1148.87C64.7363 1148.45 64.6448 1147.99 64.6832 1147.52C64.6832 1141.18 77.8906 1119.19 88.8526 1090.23C89.546 1088.38 152.446 982.13 152.446 982.13L272.236 1031.43L204.318 1137.75C204.318 1137.75 260.119 1196.82 264.774 1205.24C269.43 1213.65 267.482 1233.86 260.383 1233.43Z" fill="#EB9481"/>
<path d="M260.383 1233.43C253.251 1232.9 69.9992 1156.04 64.9474 1148.87C64.7363 1148.46 64.6448 1147.99 64.6832 1147.52C64.6832 1142.43 73.235 1127.18 82.282 1106.35C115.3 1130.68 218.78 1195 238.261 1196.39C248.529 1197.11 240.011 1180.14 233.242 1168.82C247.638 1184.5 262.496 1201.08 264.774 1205.14C269.397 1213.66 267.482 1233.86 260.383 1233.43Z" fill="#263238"/>
<path d="M215.115 1140.42L81.0603 1084.29C81.0603 1084.29 258.93 812.515 260.383 794.256C261.671 778.077 190.021 636.231 187.743 595.123C185.167 550.746 206.926 516.704 230.666 495.705L365.81 555.666C365.81 555.666 353.99 579.802 330.745 592.58C330.745 592.58 400.083 756.351 395.362 806.407C390.64 856.463 215.115 1140.42 215.115 1140.42Z" fill="#455A64"/>
<path d="M221.421 1115C202.039 1106.38 207.718 1108.59 188.403 1100.17C178.893 1096.08 116.225 1069.1 106.649 1066.86C106.451 1066.86 106.319 1067.12 106.649 1067.25C114.97 1072.47 178.101 1098.32 187.709 1102.25C207.52 1110.27 201.808 1107.77 221.52 1115.46C221.545 1115.42 221.561 1115.38 221.57 1115.34C221.578 1115.29 221.577 1115.25 221.568 1115.21C221.559 1115.16 221.541 1115.12 221.516 1115.09C221.491 1115.05 221.458 1115.02 221.421 1115Z" fill="#263238"/>
<path d="M353.527 590.005C339.05 593.209 324.868 597.627 311.132 603.212C311.038 603.266 310.966 603.35 310.929 603.451C310.891 603.552 310.889 603.663 310.925 603.764C310.96 603.866 311.03 603.953 311.122 604.008C311.214 604.064 311.322 604.086 311.429 604.071C325.693 600.075 340.188 596.377 354.188 591.656C354.407 591.568 354.582 591.397 354.675 591.18C354.768 590.964 354.771 590.719 354.683 590.5C354.595 590.281 354.424 590.106 354.208 590.013C353.991 589.92 353.746 589.917 353.527 590.005Z" fill="#263238"/>
<path d="M337.084 584.028C335.703 586.406 334.489 588.877 333.452 591.424C332.401 593.343 331.749 595.454 331.537 597.632C331.537 598.061 332.098 598.16 332.363 597.929C333.83 596.165 335.031 594.196 335.929 592.085C337.117 589.807 338.405 587.528 339.528 585.217C340.287 583.698 337.976 582.542 337.084 584.028Z" fill="#263238"/>
<path d="M338.933 570.953C339.825 568.84 340.716 566.727 341.641 564.613C342.565 562.5 343.688 560.255 344.48 558.01C344.48 557.68 345.174 558.01 345.009 558.274C344.15 560.42 343.556 562.698 342.863 564.878C342.169 567.057 341.41 569.269 340.65 571.481C339.231 575.576 337.514 579.604 335.698 583.533C337.953 583.673 340.211 583.301 342.301 582.443C344.434 581.121 346.106 579.172 347.089 576.863C348.344 574.486 349.499 572.043 350.787 569.698C352.337 567.143 353.663 564.459 354.749 561.675C354.749 561.312 355.41 561.675 355.277 561.906C353.309 567.836 350.754 573.554 347.65 578.976C346.363 581.09 345.273 583.269 342.929 584.061C340.336 584.765 337.624 584.911 334.971 584.491C334.641 584.491 334.245 584.491 334.344 583.995C335.764 579.604 337.216 575.179 338.933 570.953Z" fill="#263238"/>
<path d="M332.693 597.962C337.514 608.495 341.74 618.995 346.23 629.495C350.721 639.995 354.716 650.098 358.678 660.532C366.702 681.565 373.867 702.994 380.14 724.654C383.222 735.352 386.039 746.137 388.593 757.011C391.398 767.858 393.417 778.893 394.635 790.03C395.66 801.146 394.539 812.355 391.333 823.048C388.032 833.977 370.202 871.024 365.15 881.227C362.046 887.467 361.023 886.608 362.508 883.439C366.768 874.524 391.333 823.048 392.621 801.718C393.281 790.69 388.626 775.073 386.282 764.309C383.937 753.545 381.131 742.45 378.126 731.587C372.216 710.258 365.15 689.324 357.853 668.423C353.759 656.702 349.367 645.112 345.207 633.424C341.047 621.735 336.721 611.037 331.999 598.16C331.986 598.115 331.983 598.067 331.988 598.02C331.993 597.973 332.008 597.928 332.031 597.886C332.054 597.845 332.085 597.808 332.122 597.779C332.159 597.749 332.202 597.728 332.247 597.715C332.293 597.702 332.34 597.698 332.387 597.703C332.434 597.708 332.48 597.723 332.521 597.746C332.563 597.769 332.599 597.8 332.629 597.837C332.658 597.874 332.68 597.917 332.693 597.962Z" fill="#263238"/>
<path d="M230.798 562.104C233.241 561.246 236.576 562.765 239.02 563.227C242.173 563.793 245.361 564.146 248.562 564.284C251.722 564.433 254.888 564.366 258.038 564.086C261.21 564.031 264.327 563.252 267.151 561.807C271.77 558.521 275.735 554.4 278.84 549.657C282.592 544.83 285.679 539.522 288.019 533.874C288.019 533.544 288.646 533.874 288.547 534.105C287.491 537.407 286.698 540.709 285.245 543.713C283.968 546.669 282.455 549.518 280.722 552.232C277.829 557.646 273.644 562.262 268.538 565.67C262.892 568.807 255.694 568.51 249.487 568.081C245.874 567.846 242.286 567.327 238.756 566.529C236.213 565.968 231.921 565.505 230.336 563.227C230.282 563.125 230.252 563.011 230.246 562.896C230.241 562.78 230.261 562.665 230.305 562.558C230.349 562.451 230.416 562.355 230.501 562.277C230.587 562.198 230.688 562.139 230.798 562.104Z" fill="#263238"/>
<path d="M119.824 1059.13C142.375 1025.91 237.336 862.472 258.501 828.166C264.085 820.173 268.842 811.632 272.699 802.676C276.298 792.77 274.416 783.096 271.411 773.323C265.727 755.437 259.035 737.887 251.369 720.757C243.807 703.555 235.652 686.583 227.629 669.579C219.178 652.852 211.692 635.654 205.209 618.07C199.001 601.512 197.953 583.463 202.204 566.298C206.926 549.029 216.865 533.576 227.232 519.18C229.973 515.383 232.746 511.652 235.487 507.855C235.685 507.558 236.114 507.855 235.916 508.218C224.525 523.209 213.365 539.09 206.596 556.755C203.124 565.478 201.126 574.717 200.686 584.095C200.519 593.616 201.879 603.102 204.714 612.193C209.964 629.891 218.35 646.664 226.176 663.339C234.001 680.013 242.355 697.281 250.081 714.451C257.946 731.684 264.901 749.318 270.916 767.28C273.557 775.271 276.496 783.789 276.198 792.209C275.868 801.586 271.312 809.94 266.59 817.798C246.02 851.906 151.554 1014.16 129.102 1047.28C126.306 1051.46 123.478 1055.63 120.616 1059.79C120.22 1060.28 119.626 1059.66 119.824 1059.13Z" fill="#263238"/>
<path d="M243.642 237.006C215.181 261.406 223.105 296.967 211.218 316.25C203.954 328.037 180.28 340.518 175.592 354.122C167.832 376.475 186.785 384.499 182.558 396.616C176.549 413.852 153.502 412.498 149.54 440.663C145.578 468.828 176.351 498.742 249.85 506.865C323.349 514.987 363.763 488.044 366.405 464.172C369.046 440.3 344.579 432.342 342.896 414.644C341.839 403.22 356.928 395.296 357.721 374.329C358.513 353.362 337.91 346.528 335.103 328.731C332.297 310.934 341.707 267.614 315.292 245.525C288.878 223.435 257.708 224.954 243.642 237.006Z" fill="#263238"/>
<path d="M246.944 237.633C238.998 243.284 232.522 250.756 228.058 259.425C223.451 268.616 219.927 278.312 217.558 288.316C216.314 294.281 214.398 300.085 211.846 305.618C209.292 310.234 205.938 314.359 201.94 317.801C193.983 324.999 184.507 330.48 177.342 338.537C170.177 346.593 165.323 356.433 168.031 366.867C169.483 372.546 173.248 377.168 175.559 382.484C177.87 387.8 178.663 393.711 174.337 397.871C170.672 401.437 165.356 403.088 161.13 405.993C157.016 408.859 153.392 412.372 150.399 416.394C147.403 420.393 145.27 424.969 144.133 429.834C142.997 434.698 142.882 439.746 143.795 444.658C148.121 467.54 169.583 480.549 189.394 488.737L197.714 492.039C198.143 492.204 198.507 491.577 198.077 491.379C178.266 482.497 155.154 472.03 147.493 449.809C145.751 444.969 145.142 439.794 145.715 434.682C146.287 429.57 148.025 424.658 150.795 420.323C153.609 416.03 157.178 412.283 161.328 409.262C165.323 406.324 169.913 404.508 174.007 401.701C176.018 400.414 177.655 398.619 178.75 396.497C179.846 394.375 180.363 392.002 180.247 389.616C179.61 384.374 177.731 379.359 174.766 374.989C171.681 370.454 170.046 365.088 170.078 359.603C170.673 354.264 172.704 349.186 175.955 344.909C182.163 336.16 191.309 330.414 199.53 323.778C207.934 317.593 214.191 308.934 217.426 299.014C218.945 293.764 219.869 288.382 221.19 283.099C222.388 278.18 223.854 273.33 225.582 268.571C228.835 258.999 234.143 250.254 241.133 242.949C242.981 241.082 245.017 239.411 247.209 237.963C247.44 237.864 247.209 237.468 246.944 237.633Z" fill="#263238"/>
<path d="M369.508 446.672C368.596 442.778 366.849 439.128 364.39 435.974C361.848 432.672 358.744 429.998 355.938 427.026C353.027 424.368 350.941 420.93 349.928 417.121C349.434 412.466 350.604 407.787 353.23 403.913C355.744 399.812 357.951 395.529 359.834 391.102C362.326 384.378 363.209 377.163 362.412 370.036C361.615 362.909 359.16 356.068 355.244 350.06C352.735 345.966 349.895 342.07 347.353 337.976C344.527 333.524 342.307 328.716 340.749 323.679C337.447 312.618 336.721 300.962 334.146 289.736C331.304 278.247 327.31 267.075 322.226 256.387C322.226 256.123 321.698 256.387 321.83 256.652C326.344 266.299 329.841 276.391 332.264 286.764C334.608 296.67 335.565 306.575 337.249 316.481C337.951 321.369 339.157 326.171 340.848 330.811C342.588 335.093 344.721 339.205 347.221 343.094C352.174 351.183 357.324 359.206 358.678 368.782C360.052 378.229 358.399 387.869 353.957 396.319C350.093 403.616 344.678 411.673 348.046 420.224C350.919 427.488 357.952 431.814 362.409 437.823C364.816 441.11 366.501 444.867 367.354 448.85C368.208 452.834 368.211 456.952 367.362 460.936C363.433 481.506 342.796 491.709 323.481 492.733C323.375 492.761 323.282 492.823 323.215 492.909C323.148 492.996 323.112 493.102 323.112 493.211C323.112 493.321 323.148 493.427 323.215 493.513C323.282 493.6 323.375 493.662 323.481 493.69C340.254 493.492 358.513 486.096 366.405 470.379C370.118 463.064 371.214 454.697 369.508 446.672Z" fill="#263238"/>
<path d="M325.462 391.565C371.688 433.465 432.012 477.61 463.611 468.861C492.205 460.969 531.761 424.55 574.982 385.225C583.566 377.433 519.346 313.872 511.058 323.085C494.549 341.278 461.531 387.173 448.587 392.786C443.007 395.197 377.169 367.131 334.245 353.693C282.406 337.348 307.104 374.89 325.462 391.565Z" fill="#EB9481"/>
<path d="M609.717 370.268C594.66 381.329 570.095 396.22 558.967 397.97C548.501 399.621 503.959 332.164 510.629 323.58C531.331 296.802 572.802 277.354 591.854 278.146C610.905 278.939 625.301 358.876 609.717 370.268Z" fill="#EB9481"/>
<path d="M119.626 965.456C100.164 965.256 81.0358 960.375 63.8577 951.225L65.4425 948.32C85.2535 959.051 116.885 967.338 146.106 958.225C156.156 955.106 165.451 949.94 173.407 943.053C181.362 936.166 187.806 927.706 192.332 918.207C212.341 879.278 257.18 718.281 283.958 622.099C299.113 567.651 306.476 541.369 308.16 538.991C313.74 531.001 613.877 266.755 619.952 264.477C626.028 262.199 1508.51 28.4289 1546.05 18.4904L1546.91 21.7922C1537.73 24.2355 629.396 264.807 621.108 267.68C612.887 272.005 317.042 532.619 310.736 541.006C309.184 543.581 298.915 580.429 287.029 623.089C258.303 725.578 215.379 880.566 195.04 919.792C184.176 940.924 167.997 954.956 146.932 961.461C138.08 964.147 128.876 965.493 119.626 965.456Z" fill="#263238"/>
<path d="M562.302 282.934C558.538 292.047 571.481 291.288 571.481 291.288C571.481 291.288 553.09 296.901 552.826 307.797C552.562 318.693 568.212 316.844 569.335 316.778C568.345 317.075 551.604 322.655 552.496 333.683C553.387 344.711 568.807 340.947 569.797 340.683C568.972 341.245 558.208 349.037 560.75 357.192C565.175 371.324 593.273 352.174 604.929 354.914C604.929 354.914 608.528 370.532 608.594 371.126C608.594 371.126 629.726 358.15 632.532 342.202C632.98 339.894 632.624 337.503 631.525 335.424C630.426 333.346 628.649 331.707 626.49 330.778C626.49 330.778 635.834 326.056 635.438 317.339C635.207 312.882 627.877 309.283 627.877 309.283C629.959 308.111 631.677 306.388 632.842 304.302C634.008 302.216 634.574 299.849 634.48 297.462C633.82 291.288 626.556 288.646 626.556 288.646C626.556 288.646 631.806 281.415 629.098 275.439C623.551 263.123 570.458 263.123 562.302 282.934Z" fill="#EB9481"/>
<path d="M628.108 309.151C628.306 309.151 628.339 308.821 628.108 308.788C608.045 304.096 586.966 306.731 568.675 316.217C568.047 316.547 567.849 317.505 568.675 317.141C581.354 311.297 611.037 307.731 628.108 309.151Z" fill="#263238"/>
<path d="M568.675 341.773C586.637 332.66 605.689 330.216 625.632 330.547C625.896 330.547 625.896 330.183 625.632 330.117C615.924 327.311 603.179 328.433 593.34 330.117C584.174 331.512 575.54 335.306 568.312 341.112C568.147 341.377 568.378 341.971 568.675 341.773Z" fill="#263238"/>
<path d="M571.482 291.189C568.026 292.579 564.71 294.293 561.576 296.307C558.494 298.125 555.944 300.721 554.18 303.835C553.438 305.307 553.273 307.002 553.718 308.59C554.208 310.184 555.081 311.635 556.26 312.816C557.55 313.866 559.043 314.637 560.646 315.08C562.248 315.524 563.926 315.63 565.571 315.391L573.628 314.5L566.364 318.132C563.117 319.707 560.15 321.804 557.581 324.339C556.321 325.444 555.309 326.805 554.615 328.33C553.92 329.856 553.558 331.512 553.553 333.188C553.527 334.752 554.058 336.274 555.049 337.483C556.041 338.692 557.429 339.511 558.968 339.792C562.383 340.43 565.905 340.192 569.203 339.098L578.416 336.358L570.656 341.938C568.471 343.468 566.504 345.29 564.812 347.353C563.077 349.176 561.928 351.475 561.51 353.957C561.388 355.083 561.583 356.22 562.073 357.241C562.563 358.262 563.329 359.126 564.284 359.735C566.635 360.778 569.234 361.133 571.779 360.758C577.302 360.036 582.757 358.865 588.09 357.259C590.797 356.565 593.538 355.839 596.312 355.244C599.056 354.509 601.926 354.363 604.731 354.815C601.939 354.664 599.145 355.068 596.51 356.004C593.802 356.796 591.161 357.721 588.486 358.612C583.141 360.63 577.612 362.123 571.977 363.07C568.936 363.658 565.789 363.336 562.93 362.145C561.456 361.319 560.251 360.086 559.46 358.592C558.67 357.099 558.327 355.409 558.473 353.726C558.863 350.614 560.161 347.686 562.204 345.306C564.064 342.999 566.217 340.946 568.609 339.197L570.062 342.037C566.174 343.399 561.998 343.729 557.944 342.995C555.711 342.504 553.716 341.256 552.298 339.462C550.949 337.666 550.188 335.498 550.119 333.254C550.125 331.135 550.581 329.041 551.458 327.111C552.335 325.181 553.611 323.46 555.204 322.061C558.07 319.345 561.36 317.114 564.944 315.457L565.737 318.198C563.693 318.441 561.621 318.23 559.669 317.579C557.717 316.928 555.933 315.854 554.444 314.434C553.041 312.929 552.051 311.086 551.572 309.085C551.094 307.041 551.376 304.894 552.364 303.042C554.444 299.761 557.392 297.121 560.883 295.415C564.245 293.61 567.8 292.192 571.482 291.189Z" fill="#263238"/>
<path d="M516.11 317.141C516.11 317.141 561.312 243.972 580.264 272.797C585.91 281.349 598.854 323.249 590.5 325.99C579.703 329.556 571.052 313.08 567.387 301.887C567.387 301.887 556.953 327.047 537.274 324.999C529.678 324.17 522.407 321.47 516.11 317.141Z" fill="#EB9481"/>
<path d="M578.581 270.486C581.192 273.582 583.338 277.041 584.953 280.755C586.634 284.439 588.089 288.221 589.311 292.08C591.809 299.801 593.643 307.721 594.793 315.754C595.09 317.89 595.09 320.057 594.793 322.193C594.588 323.38 594.126 324.507 593.439 325.495C593.077 326.075 592.606 326.58 592.052 326.981C591.508 327.378 590.907 327.69 590.269 327.905C587.944 328.619 585.442 328.491 583.203 327.542C581.175 326.622 579.321 325.36 577.722 323.811C574.774 320.827 572.352 317.366 570.557 313.575C568.754 309.901 567.21 306.106 565.934 302.217H568.576C567.287 305.046 565.728 307.744 563.92 310.273C562.172 312.814 560.157 315.16 557.911 317.273C555.643 319.359 553.085 321.105 550.317 322.457C547.57 323.81 544.588 324.617 541.534 324.835C544.471 324.203 547.283 323.087 549.855 321.533C552.366 319.978 554.654 318.09 556.656 315.92C558.676 313.916 560.49 311.715 562.071 309.349C563.616 306.865 564.931 304.246 566.001 301.524L567.288 298.222L568.642 301.524C569.991 305.222 571.579 308.829 573.397 312.321C575.091 315.744 577.32 318.876 580 321.599C581.112 322.889 582.538 323.871 584.14 324.449C585.742 325.028 587.467 325.183 589.146 324.901C591.788 324.24 591.92 319.849 591.59 316.085C591.26 312.321 590.533 308.292 589.807 304.396C589.08 300.5 588.255 296.571 587.231 292.708C585.521 284.896 582.602 277.398 578.581 270.486Z" fill="#263238"/>
<path d="M401.9 456.313L426.696 384.565C426.696 384.565 365.976 356.796 331.207 349.334C296.439 341.872 288.019 356.532 319.024 388.593C350.028 420.654 401.9 456.313 401.9 456.313Z" fill="#4F46E4"/>
<path d="M414.083 382.848C409.659 392.126 406.06 401.866 402.461 411.508C398.862 421.149 395.593 430.724 392.786 440.531C392.786 440.696 393.051 440.828 393.117 440.531C397.079 431.021 400.744 421.38 404.277 411.706C407.81 402.031 411.475 392.621 414.446 382.881C414.512 382.782 414.182 382.649 414.083 382.848Z" fill="#263238"/>
<path opacity="0.1" d="M414.678 419.498L401.9 456.314C401.9 456.314 350.127 420.39 319.024 388.461C308.293 377.466 302.316 368.65 300.5 361.815L414.678 419.498Z" fill="black"/>
<path d="M368.155 557.845L193.554 527.567C193.554 527.567 235.817 403.847 272.798 359.504C290.892 337.745 317.538 346.594 328.434 356.037C331.901 359.042 365.943 406.06 369.31 425.607C372.216 442.908 360.428 461.365 360.428 461.365L368.155 557.845Z" fill="#4F46E4"/>
<path d="M352.042 461.464C345.516 460.788 338.956 460.491 332.396 460.573C329.094 460.573 325.792 460.837 322.49 461.167L317.802 461.695C316.085 461.926 314.5 462.389 312.684 462.554C312.519 462.554 312.519 462.884 312.684 462.851C314.302 462.851 315.986 462.851 317.571 462.851H322.457L332.363 462.62C338.966 462.389 345.57 462.223 351.976 462.19C352.405 461.992 352.372 461.497 352.042 461.464Z" fill="#263238"/>
<path d="M253.053 370.565C186.389 426.696 122.73 551.737 150.036 567.222C174.965 581.354 259.161 580.429 294.227 576.071C304.528 574.783 293.071 494.813 282.043 496.167C268.836 497.785 235.058 498.808 233.737 498.577C230.898 498.049 273.062 410.352 286.566 378.093C305.321 333.155 278.114 349.499 253.053 370.565Z" fill="#EB9481"/>
<path d="M387.371 489.926C388.405 492.227 388.709 494.79 388.243 497.269C387.777 499.748 386.562 502.025 384.763 503.794C388.43 506.085 391.176 509.59 392.522 513.699C394.569 520.963 384.069 527.369 384.069 527.369C387.393 530.488 389.695 534.539 390.673 538.991C391.928 546.156 382.253 554.114 382.253 554.114C383.695 558.658 383.448 563.57 381.56 567.948C376.046 579.439 356.73 581.585 344.447 583.104C332.165 584.623 295.977 577.359 288.944 576.698L278.609 498.015C278.609 498.015 331.735 475.629 346.396 475.893C358.711 476.025 383.079 481.275 387.371 489.926Z" fill="#EB9481"/>
<path d="M384.07 502.605C370.862 499.303 357.655 499.831 344.217 499.732C344.155 499.732 344.096 499.757 344.053 499.8C344.01 499.843 343.985 499.902 343.985 499.964C343.985 500.025 344.01 500.084 344.053 500.127C344.096 500.17 344.155 500.195 344.217 500.195C357.424 500.195 370.631 502.737 383.839 503.232C383.922 503.263 384.014 503.259 384.094 503.222C384.175 503.185 384.237 503.117 384.268 503.034C384.298 502.951 384.295 502.859 384.258 502.779C384.22 502.698 384.153 502.636 384.07 502.605Z" fill="#263238"/>
<path d="M383.772 526.246C380.724 525.773 377.628 525.695 374.56 526.015C371.258 526.015 367.957 526.345 364.655 526.576C358.051 527.072 351.612 527.699 345.141 528.525C344.844 528.525 344.844 529.02 345.141 528.987C351.745 528.525 358.15 528.128 364.655 527.93L374.56 527.699C377.637 527.904 380.728 527.76 383.772 527.27C383.908 527.27 384.038 527.216 384.134 527.12C384.23 527.024 384.284 526.894 384.284 526.758C384.284 526.622 384.23 526.492 384.134 526.396C384.038 526.3 383.908 526.246 383.772 526.246Z" fill="#263238"/>
<path d="M381.923 554.015C379.158 553.619 376.346 553.686 373.602 554.213L364.72 555.038C358.777 555.534 352.834 556.029 346.858 556.326C346.796 556.326 346.738 556.35 346.694 556.394C346.651 556.437 346.626 556.496 346.626 556.557C346.626 556.618 346.651 556.677 346.694 556.721C346.738 556.764 346.796 556.788 346.858 556.788C352.933 556.524 358.975 556.326 365.018 555.996L373.933 555.468C376.655 555.566 379.372 555.174 381.956 554.312L381.923 554.015Z" fill="#263238"/>
<path d="M181.436 441.587L251.237 471.568C251.237 471.568 283.231 412.994 293.203 378.853C303.175 344.712 289.109 335.004 255.034 363.763C220.959 392.522 181.436 441.587 181.436 441.587Z" fill="#4F46E4"/>
<path d="M253.713 456.611C244.765 451.559 235.322 447.234 225.978 442.974C216.634 438.715 207.289 434.753 197.714 431.253C197.67 431.253 197.628 431.27 197.597 431.301C197.566 431.332 197.549 431.374 197.549 431.418C197.549 431.462 197.566 431.504 197.597 431.535C197.628 431.565 197.67 431.583 197.714 431.583C206.893 436.205 216.237 440.564 225.648 444.79C235.058 449.017 244.204 453.309 253.68 456.974C253.746 457.04 253.878 456.743 253.713 456.611Z" fill="#263238"/>
<path d="M284.057 404.508C279.566 416.163 274.482 427.621 269.133 438.748C266.425 444.361 263.652 449.941 260.746 455.455C257.84 460.969 254.869 466.45 251.534 471.733V472.03H251.27C249.586 471.205 247.968 470.379 246.317 469.521L251.534 471.37L251.072 471.535L258.996 454.63L267.085 437.823C269.826 432.243 272.566 426.663 275.439 421.149C278.312 415.635 280.986 409.956 284.057 404.508Z" fill="#263238"/>
<path d="M270.85 432.573C272.234 429.552 273.88 426.657 275.769 423.923C277.618 421.17 279.718 418.594 282.043 416.229C280.695 419.28 279.047 422.189 277.123 424.913C275.273 427.655 273.173 430.219 270.85 432.573Z" fill="#263238"/>
<path d="M285.741 357.027C287.359 359.702 307.5 373.867 320.509 368.815C324.769 367.164 316.778 343.622 316.778 343.622L316.58 341.74L313.906 315.523L279.071 306.707L274.118 305.651C274.118 305.651 275.34 312.783 276.925 321.632C276.925 322.061 277.09 322.457 277.156 322.919C277.222 323.382 277.156 323.877 277.387 324.339C277.618 325.693 277.85 327.047 278.114 328.367C278.378 329.688 278.477 330.382 278.741 331.471C279.005 332.561 279.17 333.584 279.401 334.773C280.995 342.329 283.113 349.766 285.741 357.027Z" fill="#EB9481"/>
<path d="M276.925 321.632C281.673 327.66 287.677 332.581 294.519 336.054C301.362 339.526 308.879 341.467 316.547 341.74L313.873 315.523L279.038 306.707L274.085 305.651C274.085 305.651 275.34 312.651 276.925 321.632Z" fill="#263238"/>
<path d="M337.877 263.684C357.457 305.618 334.575 322.094 325.495 326.419C317.273 330.249 288.845 342.202 265.038 302.514C241.232 262.826 254.572 240.472 272.897 230.765C291.222 221.058 318.33 221.751 337.877 263.684Z" fill="#EB9481"/>
<path d="M320.575 254.538C319.551 254.869 318.528 255.034 317.471 255.265C316.399 255.62 315.241 255.62 314.169 255.265C313.853 255.094 313.6 254.824 313.451 254.496C313.302 254.168 313.265 253.8 313.344 253.449C313.605 252.758 314.052 252.153 314.634 251.698C315.216 251.244 315.912 250.959 316.646 250.873C318.067 250.433 319.602 250.551 320.938 251.204C321.286 251.35 321.577 251.604 321.768 251.929C321.96 252.254 322.041 252.632 322 253.007C321.959 253.381 321.799 253.733 321.542 254.009C321.285 254.285 320.946 254.471 320.575 254.538Z" fill="#263238"/>
<path d="M298.222 275.703C299.233 275.372 300.225 274.987 301.193 274.547C302.303 274.287 303.292 273.658 304 272.764C304.176 272.445 304.239 272.076 304.18 271.716C304.12 271.357 303.94 271.028 303.67 270.783C303.067 270.377 302.367 270.138 301.642 270.092C300.917 270.045 300.192 270.193 299.543 270.519C298.141 270.976 296.963 271.942 296.241 273.227C296.093 273.525 296.034 273.86 296.069 274.191C296.105 274.522 296.235 274.836 296.443 275.096C296.651 275.356 296.929 275.551 297.244 275.659C297.559 275.766 297.898 275.782 298.222 275.703Z" fill="#263238"/>
<path d="M307.17 278.08C307.17 278.08 307.005 278.312 307.17 278.444C308.656 281.217 309.91 284.651 307.797 286.863C310.703 285.014 309.019 280.491 307.17 278.08Z" fill="#263238"/>
<path d="M303.175 276.331C298.486 278.246 302.646 287.524 307.005 285.741C311.363 283.958 307.137 274.779 303.175 276.331Z" fill="#263238"/>
<path d="M301.589 277.684C300.995 278.576 300.632 279.863 299.707 280.392C298.783 280.92 297.33 280.392 296.174 279.83C296.174 279.83 296.009 279.83 296.174 279.996C296.967 281.812 298.453 283.297 300.5 282.736C301.35 282.345 302.027 281.653 302.398 280.794C302.77 279.935 302.811 278.968 302.514 278.08C302.316 277.684 301.821 277.354 301.589 277.684Z" fill="#263238"/>
<path d="M322.523 269.727C322.523 269.727 322.788 269.727 322.854 269.727C324.009 272.633 325.858 275.802 328.896 275.604V275.769C325.561 276.859 323.151 272.633 322.523 269.727Z" fill="#263238"/>
<path d="M323.778 265.533C328.269 263.156 332.693 272.137 328.566 274.514C324.438 276.892 320.014 267.548 323.778 265.533Z" fill="#263238"/>
<path d="M325.957 265.203C326.915 265.203 328.07 265.897 328.962 265.533C329.853 265.17 330.25 263.75 330.448 262.496C330.448 262.496 330.448 262.496 330.613 262.496C331.504 264.213 331.834 266.326 330.316 267.448C328.797 268.571 327.014 267.448 325.825 266.029C325.561 265.765 325.594 265.17 325.957 265.203Z" fill="#263238"/>
<path d="M317.075 301.59C318.055 302.214 319.225 302.471 320.377 302.316C321.456 301.87 322.426 301.194 323.217 300.335C323.217 300.335 323.448 300.335 323.415 300.335C323.219 301.078 322.828 301.754 322.282 302.294C321.736 302.834 321.056 303.218 320.311 303.406C319.655 303.487 318.99 303.371 318.401 303.071C317.813 302.77 317.328 302.3 317.009 301.722C316.745 301.656 316.943 301.523 317.075 301.59Z" fill="#263238"/>
<path d="M324.339 285.708C324.339 285.708 326.882 289.703 327.839 291.717C327.839 291.915 327.476 292.212 326.816 292.575C325.234 293.697 323.372 294.359 321.437 294.487C319.502 294.615 317.57 294.205 315.854 293.302C315.623 293.302 315.854 292.873 316.052 292.906C319.435 293.474 322.91 292.929 325.957 291.354C325.957 290.726 321.302 284.75 321.632 284.486C323.262 283.906 324.96 283.54 326.684 283.396C321.566 274.911 315.16 267.316 310.175 258.798C310.139 258.736 310.127 258.663 310.141 258.593C310.155 258.523 310.193 258.461 310.249 258.417C310.305 258.373 310.375 258.35 310.446 258.354C310.517 258.357 310.585 258.386 310.637 258.434C317.772 266.371 324.099 274.998 329.523 284.189C330.085 285.278 325.231 285.675 324.339 285.708Z" fill="#263238"/>
<path d="M325.198 292.84C324.721 294.815 323.743 296.635 322.358 298.123C321.594 298.907 320.599 299.428 319.519 299.608C317.141 300.005 316.217 298.09 315.854 296.307C315.673 295.316 315.607 294.308 315.656 293.302C318.805 294.166 322.147 294.005 325.198 292.84Z" fill="#263238"/>
<path d="M322.358 297.958C321.594 298.742 320.599 299.263 319.519 299.443C317.141 299.84 316.217 297.925 315.854 296.142C316.983 295.663 318.242 295.581 319.424 295.911C320.605 296.241 321.64 296.963 322.358 297.958Z" fill="#FF9CBD"/>
<path d="M269.628 304.66C279.534 298.948 266.326 265.897 264.543 261.736C265.732 264.246 272.137 277.387 273.392 277.387C274.492 276.813 275.477 276.04 276.298 275.109C275.491 273.546 274.806 271.924 274.251 270.255C273.953 269.496 275.34 271.675 277.189 274.283L278.807 272.765C276.968 269.508 275.569 266.021 274.647 262.397C274.317 261.01 277.519 266.359 281.25 270.552C288.667 263.429 296.85 257.15 305.651 251.831C308.16 250.411 310.373 249.289 312.255 248.529C310.241 244.666 307.698 240.836 308.425 241.562C310.397 243.474 312.178 245.576 313.741 247.836C314.83 247.34 315.854 246.911 316.778 246.548C314.203 241.001 307.137 233.704 308.689 234.562C313.373 237.307 317.505 240.902 320.873 245.161C324.934 243.973 326.321 244.138 325.924 243.147C323.163 237.696 319.348 232.847 314.701 228.88C310.054 224.913 304.666 221.906 298.849 220.034C279.732 214.652 251.336 227.1 246.614 253.053C246.614 253.053 234.563 271.378 239.218 284.816C243.874 298.255 263.817 307.962 269.628 304.66Z" fill="#263238"/>
<path d="M273.194 302.514C273.194 302.514 258.765 292.41 253.845 298.024C248.925 303.637 263.222 320.707 271.444 320.773C272.499 320.854 273.559 320.72 274.56 320.38C275.562 320.039 276.484 319.5 277.271 318.793C278.058 318.086 278.693 317.227 279.139 316.268C279.584 315.309 279.831 314.269 279.864 313.212L273.194 302.514Z" fill="#EB9481"/>
<path d="M258.071 302.745V302.943C260.816 303.258 263.465 304.143 265.848 305.541C268.23 306.94 270.294 308.822 271.906 311.066C271.423 310.644 270.852 310.336 270.235 310.162C269.618 309.988 268.97 309.954 268.338 310.061C267.706 310.169 267.106 310.415 266.581 310.783C266.056 311.151 265.619 311.631 265.302 312.188C265.302 312.188 265.302 312.486 265.533 312.42C266.314 311.8 267.269 311.441 268.264 311.393C269.26 311.346 270.245 311.613 271.081 312.155C272.489 313.106 273.785 314.214 274.944 315.457C275.34 315.82 276.066 315.292 275.703 314.83C273.557 308.127 265.236 300.929 258.071 302.745Z" fill="#263238"/>
<path d="M317.009 343.622L313.972 366.206L281.878 346.726L276.76 356.895C276.76 356.895 312.189 391.796 311.859 389.914L315.821 370.103L331.141 379.315L322.325 348.674L317.009 343.622Z" fill="#EBEBEB"/>
<path d="M327.641 363.895C326.023 358.877 324.504 353.792 322.655 348.872C322.655 348.674 322.292 348.674 322.292 348.872C322.523 354.056 328.896 373.173 330.018 377.829C329.358 377.433 315.953 369.872 315.887 370.07C314.764 373.372 311.825 387.801 311.693 389.055C306.113 383.508 282.802 361.947 276.562 356.928C276.525 356.911 276.483 356.905 276.443 356.912C276.403 356.919 276.365 356.938 276.336 356.967C276.307 356.996 276.288 357.033 276.281 357.074C276.274 357.114 276.28 357.156 276.298 357.193C281.548 363.235 311.825 391.796 312.123 391.631C313.84 384.727 315.207 377.74 316.217 370.697C321.347 374.359 326.719 377.668 332.297 380.603C331.034 374.957 329.48 369.381 327.641 363.895Z" fill="#263238"/>
<path d="M370.565 226.803C365.715 219.597 363.096 211.121 363.037 202.435C363.037 171.596 396.88 146.601 438.649 146.601C480.417 146.601 514.228 171.596 514.228 202.435C514.228 233.275 480.384 258.302 438.649 258.302C420.09 258.595 401.886 253.203 386.48 242.85L360.428 249.454L370.565 226.803Z" fill="#4F46E4"/>
<path d="M465.889 202.501C465.882 204.057 466.338 205.58 467.197 206.876C468.057 208.173 469.282 209.185 470.717 209.785C472.152 210.385 473.733 210.545 475.26 210.246C476.786 209.946 478.19 209.2 479.292 208.103C480.394 207.005 481.146 205.605 481.452 204.08C481.758 202.554 481.604 200.973 481.01 199.535C480.417 198.097 479.409 196.868 478.116 196.003C476.823 195.138 475.303 194.676 473.747 194.676C471.671 194.685 469.682 195.511 468.212 196.976C466.741 198.44 465.906 200.426 465.889 202.501Z" fill="#263238"/>
<path d="M438.715 210.327C443.037 210.327 446.54 206.823 446.54 202.501C446.54 198.18 443.037 194.676 438.715 194.676C434.393 194.676 430.889 198.18 430.889 202.501C430.889 206.823 434.393 210.327 438.715 210.327Z" fill="#263238"/>
<path d="M403.649 210.327C407.971 210.327 411.474 206.823 411.474 202.501C411.474 198.18 407.971 194.676 403.649 194.676C399.327 194.676 395.824 198.18 395.824 202.501C395.824 206.823 399.327 210.327 403.649 210.327Z" fill="#263238"/>
<path d="M877.561 1129.23L611.136 1177.4C467.87 1201.37 296.835 1208.04 49.0322 1182.65L316.844 1137.88C533.477 1155.77 734.295 1153.17 877.561 1129.23Z" fill="#4F46E4"/>
<path d="M894.169 1216.26L608.297 1263.31C705.437 1247.07 806.869 1219.14 878.651 1183.81C1276.85 991.276 1444.29 324.438 1446.57 318.099H1767.24C1764.86 324.438 1727.09 433.663 1567.18 738.224C1468.29 919.231 1322.12 1052.56 1146.43 1139.03C1074.58 1174.43 991.309 1200.02 894.169 1216.26Z" fill="#4F46E4"/>
<g opacity="0.3">
<path d="M894.169 1216.26L608.297 1263.31C705.437 1247.07 806.869 1219.14 878.651 1183.81C1276.85 991.276 1444.29 324.438 1446.57 318.099H1767.24C1764.86 324.438 1727.09 433.663 1567.18 738.224C1468.29 919.231 1322.12 1052.56 1146.43 1139.03C1074.58 1174.43 991.309 1200.02 894.169 1216.26Z" fill="white"/>
</g>
<path d="M1372.11 284.651L1446.6 318.099C1444.19 324.438 1286.46 979.918 878.684 1183.81C630.089 1308.09 417.484 1300.63 51.7396 1270.41L49.1642 1182.65C404.475 1212 677.107 1190.51 847.118 1101.52C1230.63 900.707 1371.55 286.236 1372.11 284.651Z" fill="#4F46E4"/>
<g opacity="0.1">
<path d="M1372.11 284.651L1446.6 318.099C1444.19 324.438 1286.46 979.918 878.684 1183.81C630.089 1308.09 417.484 1300.63 51.7396 1270.41L49.1642 1182.65C404.475 1212 677.107 1190.51 847.118 1101.52C1230.63 900.707 1371.55 286.236 1372.11 284.651Z" fill="black"/>
</g>
<path d="M1372.11 284.651H1717.65L1767.17 318.099H1446.6L1372.11 284.651Z" fill="#4F46E4"/>
<path d="M1635.27 69.8668L1859.96 354.914L1330.44 353.494L1635.27 69.8668Z" fill="#4F46E4"/>
<g opacity="0.3">
<path d="M1635.27 69.8668L1859.96 354.914L1330.44 353.494L1635.27 69.8668Z" fill="white"/>
</g>
<path d="M1330.44 353.494L1239.38 283.628L1544.2 0L1635.27 69.8668L1330.44 353.494Z" fill="#4F46E4"/>
<g opacity="0.1">
<path d="M1330.44 353.494L1239.38 283.628L1544.2 0L1635.27 69.8668L1330.44 353.494Z" fill="black"/>
</g>
<path d="M1475.42 1278.83C1482.03 1280.98 1670.23 1278.54 1677.27 1273.88C1679.97 1272.16 1681.23 1244.73 1681.79 1211.54V1210.49C1681.79 1203.65 1664.42 1088.94 1664.42 1088.94L1538.56 1090.2L1560.38 1210.72V1212.76C1560.38 1212.76 1488.76 1245.78 1481.5 1251.86C1474.24 1257.93 1468.82 1276.79 1475.42 1278.83Z" fill="#AD6359"/>
<path d="M1475.39 1278.83C1478.69 1279.92 1529.9 1279.79 1579.86 1278.83C1589.77 1278.64 1599.9 1278.4 1609.58 1278.14C1645.2 1277.15 1674.62 1275.7 1677.36 1273.91C1680.11 1272.13 1681.33 1245.52 1681.85 1212.96C1681.85 1212.5 1681.85 1212.04 1681.85 1211.58C1681.85 1211.11 1681.85 1210.85 1681.85 1210.52L1560.58 1210.75V1212.8C1560.58 1212.8 1488.96 1245.82 1481.73 1251.86C1474.5 1257.9 1468.82 1276.79 1475.39 1278.83Z" fill="#A6A6A6"/>
<path d="M1477.47 1271.5C1509.17 1270.31 1637.15 1268.53 1668.58 1269.75C1668.85 1269.75 1668.85 1269.95 1668.58 1269.95C1637.18 1271.83 1509.17 1272.59 1477.47 1272.03C1476.68 1272.03 1476.68 1271.54 1477.47 1271.5Z" fill="#263238"/>
<path d="M1546.88 1211.24C1559.32 1208.74 1574.61 1210.45 1584.29 1219.24C1584.65 1219.57 1584.29 1220.09 1583.76 1219.96C1571.77 1216.28 1559.43 1213.89 1546.94 1212.83C1546.73 1212.84 1546.53 1212.76 1546.37 1212.62C1546.22 1212.48 1546.13 1212.28 1546.12 1212.07C1546.11 1211.86 1546.18 1211.66 1546.33 1211.5C1546.47 1211.35 1546.67 1211.25 1546.88 1211.24Z" fill="#263238"/>
<path d="M1537.96 1216.79C1550.41 1214.28 1565.7 1216 1575.34 1224.78C1575.7 1225.11 1575.34 1225.64 1574.81 1225.51C1562.83 1221.83 1550.51 1219.43 1538.03 1218.34C1537.85 1218.31 1537.68 1218.22 1537.56 1218.09C1537.44 1217.95 1537.37 1217.78 1537.36 1217.59C1537.35 1217.41 1537.41 1217.23 1537.52 1217.09C1537.63 1216.94 1537.78 1216.84 1537.96 1216.79Z" fill="#263238"/>
<path d="M1529.01 1222.34C1541.46 1219.83 1556.75 1221.55 1566.39 1230.33C1566.79 1230.66 1566.39 1231.19 1565.89 1231.06C1553.91 1227.41 1541.57 1225.03 1529.08 1223.96C1528.86 1223.97 1528.66 1223.89 1528.5 1223.74C1528.34 1223.6 1528.25 1223.4 1528.24 1223.18C1528.23 1222.97 1528.31 1222.76 1528.45 1222.6C1528.6 1222.44 1528.8 1222.35 1529.01 1222.34Z" fill="#263238"/>
<path d="M1557.9 1211.15H1685.78C1685.78 1211.15 1642.86 941.683 1644.02 936.169C1644.58 933.329 1809.34 641.843 1809.34 641.843H1664.88C1664.88 641.843 1531.06 850.321 1512.7 902.688C1499.26 940.989 1557.9 1211.15 1557.9 1211.15Z" fill="#263238"/>
<path d="M1554.8 1186.32C1562.53 1185.69 1570.22 1185.06 1577.91 1184.73C1585.61 1184.4 1593.3 1184.3 1601.03 1184.14C1616.41 1183.81 1631.8 1183.61 1647.25 1183.41C1651.64 1183.41 1656.03 1183.41 1660.46 1183.41C1664.88 1183.41 1669.31 1183.87 1673.67 1183.41C1674 1183.41 1674 1183.91 1673.67 1183.91C1669.8 1183.91 1665.94 1184.73 1662.11 1185C1658.28 1185.26 1654.42 1185.66 1650.55 1185.92C1642.86 1186.41 1635.17 1186.78 1627.44 1187.11C1612.05 1187.77 1596.67 1187.93 1581.22 1188.03C1572.4 1188.03 1563.65 1187.41 1554.8 1186.78C1554.74 1186.72 1554.71 1186.63 1554.71 1186.55C1554.71 1186.46 1554.74 1186.38 1554.8 1186.32Z" fill="#455A64"/>
<path d="M1626.65 925.339C1629.16 917.366 1632.85 909.811 1637.58 902.919C1647.24 886.938 1656.89 870.957 1666.53 854.977C1686.1 822.575 1705.77 790.228 1725.54 757.936C1735.44 741.955 1745.35 726.04 1755.02 710.092C1764.1 695.366 1784.74 655.975 1787.05 652.178C1787.05 651.881 1787.68 652.013 1787.51 652.178C1780.91 666.046 1772.23 683.38 1764.1 697.842C1755.16 713.724 1745.58 729.276 1736.3 744.959C1717.25 777.218 1697.9 809.114 1678.59 840.944C1668.86 857.079 1659.09 873.203 1649.3 889.316C1644.61 897.042 1639.76 904.735 1635.23 912.428C1630.59 919.912 1628.14 928.55 1628.17 937.357C1628.68 946.571 1629.67 955.751 1631.14 964.862C1632.36 974.074 1633.55 983.253 1634.8 992.465C1637.29 1010.87 1639.88 1029.24 1642.56 1047.57C1647.93 1084.49 1653.54 1121.36 1659.37 1158.18C1660.1 1162.77 1660.86 1167.33 1661.58 1171.92C1661.58 1172.35 1660.99 1172.51 1660.92 1172.08C1654.32 1135.24 1647.91 1098.39 1642.33 1061.37C1636.75 1024.36 1631.67 987.248 1626.75 950.135C1625.18 941.947 1625.15 933.539 1626.65 925.339Z" fill="#455A64"/>
<path d="M2089.53 1289.07C2082.93 1291.12 1894.72 1286.76 1887.76 1282.04C1885.05 1280.29 1884.09 1252.85 1883.89 1219.63V1218.61C1883.89 1211.77 1834.04 1096.8 1834.04 1096.8L1957 1099.31L2005.27 1220.06V1222.14C2005.27 1222.14 2076.52 1255.98 2083.75 1261.99C2090.99 1268 2096.17 1287.02 2089.53 1289.07Z" fill="#AD6359"/>
<path d="M2089.53 1289.07C2082.93 1291.12 1894.72 1286.76 1887.76 1282.04C1885.05 1280.29 1884.09 1252.85 1883.89 1219.63V1218.61C1883.89 1218.61 1875.47 1195.49 1875.44 1194.6L1996.85 1196.75L2005.27 1220.06V1222.14C2005.27 1222.14 2076.52 1255.98 2083.75 1261.99C2090.98 1268 2096.17 1287.02 2089.53 1289.07Z" fill="#EBEBEB"/>
<path d="M2089.53 1289.07C2082.93 1291.12 1894.72 1286.76 1887.76 1282.04C1885.05 1280.29 1884.09 1252.85 1883.89 1219.63V1218.61L2005.27 1220.06V1222.14C2005.27 1222.14 2076.52 1255.98 2083.75 1261.99C2090.98 1268 2096.17 1287.02 2089.53 1289.07Z" fill="#A6A6A6"/>
<path d="M2087.52 1281.71C2055.82 1280.19 1927.87 1277.08 1896.41 1278.01C1896.18 1278.01 1896.18 1278.17 1896.41 1278.21C1927.81 1280.39 2055.79 1282.47 2087.52 1282.23C2088.24 1282.23 2088.24 1281.74 2087.52 1281.71Z" fill="#263238"/>
<path d="M2018.77 1220.65C2006.36 1218.05 1991.04 1219.6 1981.3 1228.28C1980.94 1228.61 1981.3 1229.14 1981.83 1229.01C1993.83 1225.45 2006.19 1223.18 2018.68 1222.24C2018.89 1222.25 2019.09 1222.18 2019.25 1222.04C2019.41 1221.9 2019.5 1221.71 2019.52 1221.5C2019.53 1221.29 2019.46 1221.08 2019.32 1220.92C2019.18 1220.76 2018.98 1220.67 2018.77 1220.65Z" fill="#263238"/>
<path d="M2027.66 1226.37C2015.24 1223.76 1999.92 1225.31 1990.18 1233.96C1989.82 1234.32 1990.18 1234.85 1990.71 1234.72C2002.71 1231.15 2015.07 1228.88 2027.56 1227.95C2027.77 1227.97 2027.97 1227.89 2028.13 1227.75C2028.29 1227.62 2028.39 1227.42 2028.4 1227.21C2028.41 1227 2028.34 1226.79 2028.2 1226.63C2028.06 1226.48 2027.87 1226.38 2027.66 1226.37Z" fill="#263238"/>
<path d="M2036.54 1232.01C2024.12 1229.37 2008.8 1230.96 1999.06 1239.61C1998.7 1239.94 1999.06 1240.47 1999.59 1240.37C2011.6 1236.8 2023.95 1234.52 2036.44 1233.57C2036.62 1233.54 2036.79 1233.45 2036.91 1233.32C2037.04 1233.19 2037.11 1233.01 2037.13 1232.83C2037.14 1232.65 2037.09 1232.47 2036.98 1232.32C2036.87 1232.17 2036.72 1232.06 2036.54 1232.01Z" fill="#263238"/>
<path d="M1679.97 641.843C1679.97 641.843 1697.31 747.502 1698.46 750.804C1698.46 750.804 1705.07 753.874 1716.52 759.223L1856.82 1221.68L2012.01 1222.21L1827.83 641.843H1679.97Z" fill="#263238"/>
<path d="M1692.85 747.568C1706.32 753.195 1719.28 759.978 1731.58 767.842C1731.66 767.911 1731.71 768.005 1731.73 768.108C1731.75 768.211 1731.73 768.317 1731.68 768.409C1731.63 768.501 1731.55 768.573 1731.46 768.614C1731.36 768.655 1731.25 768.662 1731.15 768.634C1717.94 762.295 1704.74 756.186 1692.06 749.12C1691.85 749.015 1691.7 748.833 1691.63 748.613C1691.55 748.393 1691.57 748.154 1691.68 747.948C1691.78 747.742 1691.97 747.587 1692.19 747.516C1692.41 747.444 1692.64 747.463 1692.85 747.568Z" fill="#455A64"/>
<path d="M1697.9 687.078C1700.02 699.724 1701.2 712.536 1702.62 725.281C1702.99 728.318 1703.35 731.389 1703.68 734.427C1703.76 737.246 1704.51 740.007 1705.86 742.483C1708.6 746.743 1713.52 748.724 1717.98 750.672C1718.51 750.903 1718.31 751.728 1717.71 751.53C1712.92 750.366 1708.5 748.029 1704.84 744.728C1700.77 740.436 1700.91 733.931 1700.28 728.384C1698.48 714.708 1697.49 700.938 1697.31 687.144C1697.3 687.066 1697.32 686.987 1697.37 686.925C1697.42 686.863 1697.49 686.823 1697.57 686.814C1697.65 686.806 1697.73 686.828 1697.79 686.878C1697.85 686.928 1697.89 687 1697.9 687.078Z" fill="#455A64"/>
<path d="M1713.19 690.942C1713.65 700.055 1714.64 709.168 1715.4 718.248C1715.8 722.705 1716.09 727.196 1716.39 731.686C1716.69 736.177 1717.18 740.932 1717.05 745.521C1717.03 745.579 1716.99 745.63 1716.94 745.666C1716.89 745.701 1716.83 745.721 1716.77 745.721C1716.71 745.721 1716.65 745.701 1716.6 745.666C1716.55 745.63 1716.51 745.579 1716.49 745.521C1715.73 741.196 1715.63 736.705 1715.27 732.314C1714.91 727.922 1714.58 723.102 1714.34 718.512C1713.82 709.3 1713.55 700.055 1712.73 690.876C1712.74 690.814 1712.77 690.759 1712.82 690.722C1712.87 690.685 1712.93 690.669 1712.99 690.678C1713.05 690.686 1713.11 690.719 1713.15 690.769C1713.18 690.818 1713.2 690.88 1713.19 690.942Z" fill="#455A64"/>
<path d="M1733.03 778.638C1743.8 804.855 1858.7 1180.7 1859.96 1183.97C1859.96 1184.24 1859.63 1184.4 1859.49 1184.14C1844.14 1154.09 1746.04 815.024 1736.27 788.61L1732.6 778.704C1732.51 778.572 1732.93 778.407 1733.03 778.638Z" fill="#455A64"/>
<path d="M1855.66 1195.66C1860.15 1195.03 1864.81 1195.07 1869.33 1194.74C1873.86 1194.41 1878.45 1194.34 1883 1194.24C1892.12 1194.04 1901.23 1193.9 1910.34 1193.81C1928.44 1193.58 1946.66 1193.51 1964.62 1193.51C1974.96 1193.51 1985.26 1194.08 1995.6 1194.27C1995.93 1194.27 1995.93 1194.77 1995.6 1194.8C1986.52 1195.17 1977.4 1195.73 1968.29 1196.06C1959.18 1196.39 1950.06 1196.45 1940.95 1196.58C1922.59 1196.85 1904.23 1197.15 1885.88 1197.11C1880.76 1197.11 1875.67 1197.11 1870.59 1196.92C1865.5 1196.72 1860.68 1196.92 1855.63 1196.19C1855.3 1196.16 1855.4 1195.69 1855.66 1195.66Z" fill="#455A64"/>
<path d="M1699.35 482.695C1668.48 460.771 1621.93 407.446 1612.71 386.414C1600.89 359.372 1580.06 265.996 1589.44 255.1C1594.62 249.09 1662.08 258.005 1665.84 265.534C1669.61 273.062 1671.52 355.277 1672.44 361.518C1673.37 367.758 1704.27 426.762 1721.51 454.861C1741.85 487.648 1719.46 496.959 1699.35 482.695Z" fill="#AD6359"/>
<path d="M1590.53 277.288C1587.54 271.817 1586.38 265.535 1587.22 259.359C1589.11 249.454 1595.84 238.987 1593.83 232.944C1590.82 223.468 1581.68 208.247 1585.28 204.813C1592.64 197.714 1601.79 202.6 1612.48 220.034C1615.26 224.558 1619.35 236.015 1622.75 236.543C1628.73 237.567 1631.24 227.1 1631.93 217.525C1633.29 199.001 1631.5 171.86 1643.75 168.36C1648.37 167.007 1650.59 173.742 1651.58 182.063C1652.04 169.978 1653.86 158.026 1658.94 156.342C1660.25 155.955 1661.67 156.08 1662.89 156.693C1664.12 157.306 1665.07 158.36 1665.54 159.644C1665.8 158.169 1666.51 156.812 1667.57 155.763C1668.64 154.714 1670.01 154.027 1671.49 153.799C1676.24 153.007 1679.58 157.101 1681.86 163.21C1682.26 162.739 1682.77 162.372 1683.34 162.136C1683.92 161.901 1684.54 161.805 1685.16 161.856C1698 162.087 1703.58 208.544 1699.09 220.232C1689.67 243.222 1677.14 264.809 1661.85 284.387C1644.58 289.538 1590.53 277.321 1590.53 277.288Z" fill="#AD6359"/>
<path d="M1649.86 236.015C1653.65 228.245 1655.65 219.729 1655.74 211.086C1655.74 200.95 1653 191.044 1651.97 180.974C1651.97 180.709 1651.51 180.775 1651.54 180.974C1652.27 185.86 1652.5 190.879 1653.03 195.799C1653.56 200.718 1654.22 205.44 1654.42 210.261C1654.8 219.056 1653.2 227.826 1649.73 235.916C1649.73 235.916 1649.83 236.114 1649.86 236.015Z" fill="#263238"/>
<path d="M1666.17 239.086C1669.72 229.912 1672.32 220.396 1673.93 210.69C1675.28 200.025 1672.94 189.36 1670.63 178.959C1669.31 172.719 1667.89 166.511 1666.3 160.337C1666.3 160.073 1665.81 160.106 1665.87 160.337C1668.19 170.936 1670.2 181.634 1671.85 192.398C1673.45 202.366 1673.08 212.553 1670.76 222.379C1669.41 227.959 1667.46 233.473 1665.87 238.888C1666.01 239.119 1666.14 239.185 1666.17 239.086Z" fill="#263238"/>
<path d="M1682.85 238.293C1686.8 230.274 1689.27 221.604 1690.14 212.704C1690.29 201.787 1689.07 190.894 1686.51 180.28C1685.22 174.535 1683.77 168.856 1682.22 163.177C1682.22 162.946 1681.76 163.177 1681.79 163.177C1684.99 175.886 1687.37 188.79 1688.89 201.808C1689.72 208 1689.58 214.284 1688.46 220.43C1687.08 226.483 1685.18 232.404 1682.78 238.128C1682.78 238.128 1682.81 238.326 1682.85 238.293Z" fill="#263238"/>
<path d="M1671.98 292.84L1586.63 310.901C1586.63 310.901 1604.72 377.763 1612.09 393.446C1619.45 409.13 1678.52 476.488 1701.53 488.572C1724.55 500.657 1739.77 488.275 1725.37 457.403C1710.98 426.531 1679.51 367.626 1677.53 361.055C1675.55 354.485 1671.98 292.84 1671.98 292.84Z" fill="#455A64"/>
<path d="M1720.26 481.506C1718.29 482.969 1716.49 484.653 1714.91 486.525C1717.13 485.512 1719.24 484.25 1721.18 482.761C1723.15 481.307 1724.93 479.622 1726.5 477.742C1724.28 478.763 1722.19 480.025 1720.26 481.506ZM1700.44 447.564C1698.78 452.158 1698.1 457.053 1698.46 461.927C1700.13 457.333 1700.81 452.437 1700.44 447.564ZM1615.72 361.419C1614.27 359.45 1612.6 357.655 1610.73 356.07C1611.72 358.31 1612.99 360.418 1614.5 362.343C1615.94 364.309 1617.61 366.094 1619.48 367.659C1618.48 365.45 1617.24 363.357 1615.79 361.419H1615.72ZM1599.97 307.995L1598.35 308.325C1599.78 310.28 1601.45 312.054 1603.3 313.608C1602.43 311.62 1601.33 309.738 1600.04 307.995H1599.97ZM1676.94 427.951C1675.49 425.982 1673.81 424.187 1671.95 422.602C1672.94 424.842 1674.2 426.95 1675.71 428.875C1677.16 430.841 1678.83 432.626 1680.7 434.191C1679.7 431.981 1678.46 429.889 1677 427.951H1676.94ZM1659.17 368.947C1657.21 370.389 1655.42 372.063 1653.86 373.933C1656.07 372.925 1658.17 371.662 1660.1 370.169C1662.06 368.726 1663.85 367.052 1665.41 365.183C1663.22 366.195 1661.14 367.458 1659.24 368.947H1659.17ZM1644.15 298.651L1643.65 299.212L1645.4 298.387L1644.15 298.651ZM1686.11 391.895C1683.7 391.537 1681.25 391.459 1678.82 391.664C1683.41 393.331 1688.31 394.006 1693.18 393.645C1690.9 392.791 1688.53 392.204 1686.11 391.895ZM1627.08 327.707C1624.66 327.349 1622.21 327.271 1619.78 327.476C1624.37 329.175 1629.27 329.862 1634.14 329.49C1631.86 328.626 1629.49 328.028 1627.08 327.707ZM1636.98 392.72C1635.32 397.314 1634.64 402.209 1635 407.083C1636.67 402.489 1637.34 397.594 1636.98 392.72ZM1670.3 317.009C1668.6 321.608 1667.92 326.517 1668.28 331.405C1669.94 326.796 1670.62 321.895 1670.3 317.009Z" fill="white"/>
<path d="M1668.38 316.679C1656.33 319.981 1606.51 331.009 1595.74 332.693C1594.98 332.693 1594.75 332.363 1595.51 332.165C1619.42 325.5 1643.68 320.165 1668.19 316.184C1668.22 316.171 1668.25 316.164 1668.29 316.165C1668.32 316.165 1668.36 316.172 1668.39 316.186C1668.42 316.2 1668.45 316.22 1668.48 316.245C1668.5 316.27 1668.52 316.3 1668.53 316.332C1668.54 316.365 1668.55 316.399 1668.55 316.435C1668.55 316.47 1668.54 316.504 1668.53 316.536C1668.52 316.569 1668.5 316.598 1668.47 316.622C1668.45 316.647 1668.42 316.666 1668.38 316.679Z" fill="#263238"/>
<path d="M1701.53 488.341C1685.02 479.69 1650.12 442.644 1628.89 416.592L1711.93 429.8C1717.05 439.903 1721.84 449.611 1725.41 457.304C1739.77 488.044 1724.58 500.459 1701.53 488.341Z" fill="#263238"/>
<path d="M1837.11 656.438C1837.11 656.438 1637.71 683.975 1637.28 683.612C1634.34 681.267 1644.68 468.101 1652.6 449.809C1661.09 430.196 1687.5 420.092 1702.36 428.281C1739.64 449.116 1786.92 534.204 1798.11 560.618C1816.77 604.104 1835.85 644.551 1837.11 656.438Z" fill="#455A64"/>
<path d="M1677 427.95C1676.5 428.103 1676.02 428.291 1675.55 428.512L1675.85 428.941C1677.29 430.907 1678.96 432.692 1680.83 434.257C1679.79 432.018 1678.51 429.903 1677 427.95ZM1672.25 637.617C1670.55 642.216 1669.86 647.125 1670.23 652.013C1671.89 647.404 1672.57 642.503 1672.25 637.617ZM1741.58 504.355C1739.89 508.954 1739.2 513.863 1739.57 518.751C1741.22 514.142 1741.91 509.241 1741.58 504.355ZM1700.64 447.563C1698.98 452.157 1698.3 457.052 1698.66 461.926C1700.33 457.332 1701 452.437 1700.64 447.563ZM1753.08 667.432C1752.98 667.636 1752.91 667.846 1752.84 668.06H1753.11C1753.07 667.846 1753.02 667.636 1752.94 667.432H1753.08ZM1708.14 580.099C1706.47 584.693 1705.79 589.588 1706.16 594.462C1707.82 589.868 1708.5 584.973 1708.14 580.099ZM1655.31 520.666C1653.64 525.272 1652.97 530.177 1653.33 535.062C1654.99 530.456 1655.67 525.551 1655.31 520.666ZM1790.09 592.382C1789.2 594.666 1788.61 597.05 1788.31 599.481C1787.95 601.896 1787.87 604.345 1788.07 606.778C1788.93 604.488 1789.52 602.105 1789.82 599.679C1790.22 597.257 1790.32 594.795 1790.12 592.349L1790.09 592.382ZM1755.32 485.402C1754.46 485.353 1753.6 485.353 1752.75 485.402C1753.82 485.826 1754.92 486.179 1756.05 486.459L1755.32 485.402ZM1698.23 515.119C1695.82 514.761 1693.37 514.683 1690.93 514.888C1695.52 516.587 1700.42 517.274 1705.3 516.902C1703.03 516.006 1700.67 515.375 1698.26 515.02L1698.23 515.119ZM1757.5 577.854C1755.08 577.496 1752.64 577.418 1750.2 577.623C1754.8 579.29 1759.69 579.965 1764.57 579.604C1762.3 578.707 1759.94 578.076 1757.53 577.722L1757.5 577.854ZM1645.8 566.495C1644.29 566.29 1642.77 566.169 1641.24 566.132C1641.24 566.462 1641.24 566.793 1641.24 567.123C1642.7 567.499 1644.18 567.797 1645.67 568.014C1648.08 568.372 1650.53 568.45 1652.96 568.245C1650.67 567.34 1648.27 566.709 1645.83 566.363L1645.8 566.495ZM1767.24 647.39C1764.82 647.032 1762.38 646.955 1759.94 647.159C1764.55 648.824 1769.45 649.499 1774.34 649.14C1772.05 648.29 1769.67 647.703 1767.24 647.39ZM1705.43 627.843C1703.01 627.485 1700.57 627.408 1698.13 627.612C1702.74 629.277 1707.64 629.952 1712.53 629.593C1710.25 628.746 1707.88 628.159 1705.46 627.843H1705.43ZM1643.62 621.9C1641.88 621.68 1640.12 621.558 1638.37 621.537C1638.35 621.812 1638.35 622.087 1638.37 622.362C1640.03 622.828 1641.72 623.181 1643.42 623.419C1645.84 623.794 1648.29 623.871 1650.72 623.65C1648.44 622.797 1646.07 622.209 1643.65 621.9H1643.62ZM1720.22 481.506C1718.25 482.968 1716.46 484.652 1714.87 486.525C1717.1 485.512 1719.2 484.249 1721.15 482.761C1723.11 481.307 1724.9 479.622 1726.46 477.742C1724.26 478.765 1722.18 480.027 1720.26 481.506H1720.22ZM1789.76 561.014C1787.79 562.457 1786.01 564.131 1784.44 566C1786.66 564.992 1788.76 563.729 1790.68 562.236C1792.65 560.794 1794.43 559.12 1796 557.25C1793.79 558.26 1791.71 559.524 1789.79 561.014H1789.76ZM1728.64 550.779C1726.68 552.221 1724.89 553.895 1723.33 555.764C1725.55 554.756 1727.64 553.493 1729.57 552C1731.53 550.558 1733.32 548.884 1734.88 547.015C1732.67 548.025 1730.59 549.288 1728.67 550.779H1728.64ZM1809.31 641.843C1807.33 643.276 1805.55 644.951 1803.99 646.829C1808.42 644.749 1812.37 641.769 1815.58 638.079C1813.35 639.069 1811.25 640.334 1809.34 641.843H1809.31ZM1720.16 656.503C1718.18 657.936 1716.4 659.611 1714.84 661.489C1719.27 659.409 1723.22 656.429 1726.43 652.739C1724.21 653.732 1722.13 654.996 1720.22 656.503H1720.16ZM1668.88 594.561C1666.91 595.994 1665.12 597.669 1663.56 599.547C1667.99 597.467 1671.94 594.487 1675.15 590.797C1672.93 591.789 1670.85 593.054 1668.94 594.561H1668.88ZM1731.61 454.299C1731.38 453.966 1731.13 453.646 1730.85 453.342C1729.97 452.307 1729.08 451.316 1728.18 450.37C1727.74 449.937 1727.28 449.529 1726.79 449.148C1727.79 451.382 1729.06 453.488 1730.56 455.422C1732 457.388 1733.67 459.172 1735.54 460.738C1734.5 458.441 1733.18 456.279 1731.61 454.299ZM1768.99 530.737C1767.54 528.767 1765.87 526.972 1764 525.388C1765 527.621 1766.27 529.727 1767.77 531.661C1769.21 533.627 1770.88 535.412 1772.75 536.977C1771.75 534.758 1770.48 532.663 1768.99 530.737ZM1821.29 613.547C1820.22 612.245 1819.03 611.051 1817.73 609.981C1818.71 612.221 1819.98 614.328 1821.49 616.254C1822.15 617.079 1822.74 617.872 1823.47 618.664L1821.29 613.547ZM1692.52 672.55C1693.04 673.767 1693.65 674.938 1694.37 676.05L1695.82 675.852C1694.79 674.64 1693.64 673.534 1692.39 672.55H1692.52ZM1644.51 667.003C1643.06 665.034 1641.39 663.239 1639.53 661.654C1640.51 663.894 1641.78 666.002 1643.29 667.928C1644.73 669.894 1646.41 671.678 1648.28 673.244C1647.21 671.025 1645.91 668.932 1644.38 667.003H1644.51ZM1748.32 615.296C1746.87 613.327 1745.2 611.532 1743.33 609.947C1744.32 612.188 1745.59 614.295 1747.1 616.221C1748.54 618.187 1750.22 619.972 1752.08 621.537C1751.02 619.318 1749.72 617.225 1748.19 615.296H1748.32ZM1675.32 483.223C1673.87 481.254 1672.19 479.459 1670.33 477.874C1671.32 480.114 1672.58 482.222 1674.1 484.148C1675.54 486.114 1677.21 487.898 1679.08 489.464C1678.03 487.21 1676.72 485.084 1675.19 483.124L1675.32 483.223ZM1687.1 548.864C1685.65 546.894 1683.98 545.1 1682.12 543.515C1683.11 545.755 1684.37 547.863 1685.88 549.788C1687.33 551.754 1689 553.539 1690.87 555.104C1689.81 552.851 1688.51 550.724 1686.97 548.765L1687.1 548.864Z" fill="white"/>
<path d="M1661.88 459.582C1671.22 461.134 1695.29 442.677 1699.52 427.786C1699.78 426.762 1696.22 417.484 1692.39 406.027C1690.11 399.06 1687.73 391.268 1686.05 383.97L1642.93 405.498C1647.6 414.009 1651.23 423.056 1653.72 432.441C1653.94 433.452 1654.06 434.48 1654.09 435.512C1654.07 435.677 1654.07 435.843 1654.09 436.007C1654.52 441.885 1651.11 457.932 1661.88 459.582Z" fill="#AD6359"/>
<path d="M1683.87 385.06C1684.53 395.295 1684.73 428.677 1658.91 435.181C1657.34 435.604 1655.74 435.892 1654.12 436.04C1654.11 435.864 1654.11 435.687 1654.12 435.512C1654.07 434.481 1653.95 433.454 1653.76 432.441C1651.28 423.05 1647.65 414.001 1642.96 405.498L1683.87 385.06Z" fill="#263238"/>
<path d="M1643.03 309.877C1643.03 309.877 1626.52 312.717 1619.91 327.509C1613.31 342.301 1613.31 359.306 1614.53 360.527C1615.75 361.749 1643.03 309.877 1643.03 309.877Z" fill="#263238"/>
<path d="M1699.16 342.598C1700.41 359.933 1681.13 404.739 1667.23 412.531C1647.09 423.824 1619.42 419.135 1611.1 396.022C1603.11 373.735 1629.26 315.788 1644.12 309.25C1666.5 299.609 1697.34 317.009 1699.16 342.598Z" fill="#AD6359"/>
<path d="M1644.74 362.442C1644.74 362.442 1644.91 362.673 1644.74 362.805C1643.32 365.777 1642.17 369.409 1644.45 371.588C1644.45 371.588 1644.45 371.819 1644.45 371.753C1641.34 369.805 1642.89 365.018 1644.74 362.442Z" fill="#263238"/>
<path d="M1648.8 360.494C1653.79 362.277 1649.86 372.15 1645.24 370.4C1640.62 368.65 1644.61 358.877 1648.8 360.494Z" fill="#263238"/>
<path d="M1627.87 355.046C1627.87 355.046 1627.57 355.046 1627.54 355.046C1626.42 358.117 1624.6 361.65 1621.43 361.386V361.584C1624.96 362.607 1627.31 358.15 1627.87 355.046Z" fill="#263238"/>
<path d="M1626.42 350.754C1621.66 348.41 1617.34 358.117 1621.76 360.263C1626.19 362.409 1630.41 352.702 1626.42 350.754Z" fill="#263238"/>
<path d="M1656.83 352.702C1655.37 352.405 1654.05 351.91 1652.63 351.48C1651.1 351.264 1649.68 350.544 1648.61 349.433C1648.34 349.022 1648.21 348.535 1648.25 348.046C1648.28 347.557 1648.48 347.094 1648.8 346.726C1649.57 346.084 1650.49 345.662 1651.47 345.505C1652.45 345.348 1653.46 345.462 1654.38 345.834C1656.37 346.278 1658.12 347.457 1659.27 349.136C1659.49 349.528 1659.6 349.974 1659.58 350.423C1659.56 350.873 1659.41 351.307 1659.16 351.678C1658.9 352.049 1658.55 352.342 1658.14 352.523C1657.73 352.704 1657.27 352.766 1656.83 352.702Z" fill="#263238"/>
<path d="M1622.95 345.372C1624 346.335 1625.1 347.239 1626.25 348.079C1627.32 349.196 1628.72 349.938 1630.25 350.193C1630.75 350.181 1631.22 350.002 1631.61 349.685C1631.99 349.367 1632.26 348.93 1632.36 348.443C1632.44 347.452 1632.25 346.459 1631.81 345.569C1631.36 344.679 1630.69 343.926 1629.85 343.391C1628.36 342.019 1626.4 341.264 1624.37 341.278C1623.91 341.319 1623.48 341.491 1623.12 341.773C1622.76 342.054 1622.49 342.434 1622.34 342.866C1622.19 343.299 1622.17 343.765 1622.27 344.209C1622.38 344.654 1622.62 345.057 1622.95 345.372Z" fill="#263238"/>
<path d="M1638.87 389.418C1637.89 390.054 1636.72 390.324 1635.56 390.178C1634.43 389.709 1633.42 389 1632.59 388.098C1632.59 388.098 1632.39 388.098 1632.39 388.098C1632.58 388.9 1632.99 389.633 1633.58 390.216C1634.16 390.798 1634.89 391.208 1635.7 391.399C1636.38 391.474 1637.07 391.348 1637.69 391.038C1638.3 390.727 1638.82 390.245 1639.16 389.65C1639.18 389.61 1639.18 389.567 1639.17 389.527C1639.15 389.487 1639.13 389.452 1639.1 389.426C1639.06 389.401 1639.02 389.386 1638.98 389.385C1638.94 389.383 1638.9 389.395 1638.87 389.418Z" fill="#263238"/>
<path d="M1639.29 379.017C1638.04 379.911 1636.61 380.537 1635.1 380.855C1633.58 381.173 1632.02 381.177 1630.51 380.866C1629.19 380.591 1627.92 380.147 1626.71 379.546C1626.48 379.426 1626.24 379.294 1626.02 379.149L1625.26 378.687C1625.11 378.589 1625 378.446 1624.94 378.279C1624.88 378.113 1624.88 377.932 1624.93 377.763V377.466V377.201C1625.79 374.824 1627.44 371.324 1627.44 371.324C1626.42 371.324 1621.27 371.654 1621.83 370.433C1626.31 359.995 1631.84 350.038 1638.34 340.716C1638.38 340.646 1638.44 340.595 1638.52 340.573C1638.6 340.551 1638.68 340.561 1638.75 340.601C1638.82 340.64 1638.87 340.706 1638.89 340.783C1638.91 340.86 1638.9 340.943 1638.87 341.013C1634.74 350.721 1628.96 359.636 1624.67 369.343C1626.52 369.217 1628.38 369.372 1630.18 369.805C1630.48 370.036 1626.88 376.409 1626.55 377.565C1628.4 378.529 1630.42 379.11 1632.49 379.275C1634.57 379.44 1636.66 379.183 1638.63 378.522C1639.43 378.687 1639.59 378.852 1639.29 379.017Z" fill="#263238"/>
<path d="M1628.56 378.885C1629.15 381.074 1630.28 383.075 1631.87 384.697C1632.78 385.535 1633.94 386.076 1635.17 386.249C1637.84 386.579 1638.8 384.367 1639.13 382.286C1639.26 381.19 1639.26 380.081 1639.13 378.985C1635.69 380.07 1631.99 380.035 1628.56 378.885Z" fill="#263238"/>
<path d="M1631.87 384.697C1632.78 385.535 1633.94 386.076 1635.17 386.248C1637.84 386.579 1638.8 384.366 1639.13 382.286C1637.82 381.813 1636.4 381.793 1635.08 382.23C1633.76 382.668 1632.63 383.537 1631.87 384.697Z" fill="#FF9CBD"/>
<path d="M1683.97 382.715C1678.49 382.319 1678.55 365.315 1679.15 359.008C1679.71 353.461 1684.23 336.919 1684.43 335.895C1684.63 334.872 1657.52 341.641 1646.53 333.188C1635.53 324.735 1631.57 310.438 1633.32 305.155C1635.07 299.872 1655.67 292.707 1669.27 297.198C1682.88 301.688 1694.3 325.594 1694.3 325.594C1693.09 322.272 1692.14 318.861 1691.46 315.391C1693.6 316.821 1695.35 318.757 1696.56 321.026C1697.77 323.295 1698.4 325.829 1698.4 328.4C1698.4 328.4 1699.68 320.047 1700.38 320.146C1701.07 320.245 1705.23 329.457 1701.76 333.848C1701.76 333.848 1706.92 343.556 1704.77 351.183C1702.62 358.81 1690.44 383.178 1683.97 382.715Z" fill="#263238"/>
<path d="M1638.7 327.047C1641.61 330.452 1645.02 333.401 1648.8 335.797C1653.22 337.956 1658.09 338.999 1663 338.834C1667.91 338.821 1672.78 338.018 1677.43 336.457C1681.49 335.103 1685.45 333.155 1689.65 332.099C1690.7 331.834 1691.2 333.419 1690.37 333.981C1681.83 339.61 1671.7 342.352 1661.48 341.806C1656.73 341.551 1652.13 340.065 1648.12 337.496C1644.12 334.926 1640.85 331.359 1638.63 327.146C1638.63 327.146 1638.67 327.014 1638.7 327.047Z" fill="#263238"/>
<path d="M1680.47 379.018C1680.47 379.018 1694.77 366.57 1700.64 372.051C1706.52 377.532 1693.15 397.343 1684.4 398.465C1683.28 398.677 1682.12 398.659 1681.01 398.411C1679.89 398.164 1678.84 397.692 1677.91 397.025C1676.99 396.358 1676.21 395.509 1675.62 394.531C1675.03 393.552 1674.65 392.465 1674.49 391.333L1680.47 379.018Z" fill="#AD6359"/>
<path d="M1696.68 377.631V377.862C1690.51 378.721 1686.25 383.211 1682.81 388.098C1683.28 387.616 1683.84 387.242 1684.47 387.001C1685.1 386.759 1685.77 386.657 1686.44 386.701C1687.11 386.745 1687.76 386.934 1688.35 387.255C1688.93 387.576 1689.45 388.021 1689.85 388.56C1689.85 388.56 1689.85 388.89 1689.61 388.824C1688.71 388.257 1687.65 387.987 1686.58 388.052C1685.52 388.118 1684.5 388.514 1683.67 389.187C1682.27 390.301 1681.01 391.575 1679.91 392.984C1679.51 393.414 1678.69 392.984 1679.02 392.39C1680.7 385.06 1688.79 376.442 1696.68 377.631Z" fill="#263238"/>
<path d="M1662.77 496.167C1622.82 488.374 1545.09 453.969 1532.98 445.054C1507.58 426.333 1455.94 334.674 1460.33 320.014C1462.78 311.924 1532.18 309.316 1539.28 314.929C1546.38 320.542 1577.05 389.22 1580.82 394.8C1584.58 400.38 1662.97 453.276 1680.17 468.332C1711.31 495.605 1688.76 501.251 1662.77 496.167Z" fill="#AD6359"/>
<path d="M1534.53 340.155C1534.53 340.155 1549.19 313.971 1557.97 296.373C1562.86 286.467 1569.76 269 1570.06 260.052C1570.52 246.845 1563.95 191.143 1550.41 192.431C1538.16 193.619 1549.88 240.737 1549.88 240.737C1549.88 240.737 1542.25 192.134 1527.76 196.261C1513.26 200.388 1533.6 251.864 1533.6 251.864C1533.6 251.864 1524.65 202.138 1510.49 208.742C1499.69 213.761 1515.48 261.571 1515.48 261.571C1515.48 261.571 1507.49 218.878 1496.16 223.534C1483.68 228.718 1495.47 273.623 1495.47 273.623C1468.72 290.33 1457.99 302.052 1460.24 323.15C1460.5 326.518 1534.53 340.155 1534.53 340.155Z" fill="#AD6359"/>
<path d="M1554.9 261.538C1554.21 255.793 1553.55 249.982 1552.36 244.336C1551.17 238.69 1549.78 233.043 1548.06 227.529C1545.98 220.268 1543.08 213.267 1539.41 206.662C1544.42 218.958 1548.28 231.692 1550.94 244.699C1552.13 250.345 1553.58 255.958 1554.8 261.604C1554.73 261.736 1554.93 261.67 1554.9 261.538Z" fill="#263238"/>
<path d="M1534.56 266.227C1533.37 258.93 1532.45 251.666 1530.93 244.435C1529.41 237.204 1526.93 227.199 1524.95 220.1C1524.95 219.572 1523.93 219.539 1524.06 220.1C1525.78 227.265 1527.82 237.6 1529.48 244.765C1531.13 251.93 1533.01 259.062 1534.4 266.26C1534.4 266.425 1534.56 266.425 1534.56 266.227Z" fill="#263238"/>
<path d="M1517.82 273.392C1516.26 262.134 1513.54 251.069 1509.7 240.373C1509.53 239.845 1509.24 240.373 1509.4 240.77C1512.31 251.666 1514.65 260.184 1517.42 273.359C1517.46 273.656 1517.82 273.623 1517.82 273.392Z" fill="#263238"/>
<path d="M1468.39 352.801L1559.03 343.49C1559.03 343.49 1577.88 387.14 1581.64 392.357C1585.41 397.574 1670.36 453.573 1687.3 467.639C1704.24 481.704 1701.3 507.822 1664.85 500.657C1633.38 494.482 1548.3 459.219 1532.25 448.455C1516.2 437.691 1468.39 352.801 1468.39 352.801Z" fill="#455A64"/>
<path d="M1675.19 483.124C1673.74 481.155 1672.06 479.36 1670.2 477.775C1671.19 480.016 1672.45 482.123 1673.96 484.049C1675.41 486.015 1677.08 487.8 1678.95 489.365C1677.93 487.152 1676.67 485.059 1675.19 483.124ZM1638.87 481.539C1636.9 482.982 1635.11 484.656 1633.55 486.525C1635.77 485.517 1637.86 484.254 1639.79 482.761C1641.75 481.306 1643.52 479.621 1645.07 477.742C1642.87 478.765 1640.8 480.039 1638.9 481.539H1638.87ZM1642.76 445.681C1640.35 445.323 1637.9 445.246 1635.46 445.45C1640.05 447.15 1644.95 447.837 1649.83 447.465C1647.56 446.603 1645.2 446.005 1642.79 445.681H1642.76ZM1610.4 462.191C1608.74 466.797 1608.06 471.702 1608.42 476.587C1610.09 471.981 1610.76 467.075 1610.4 462.191ZM1496.95 364.489C1495.5 362.52 1493.83 360.725 1491.97 359.14C1492.95 361.381 1494.22 363.488 1495.73 365.414C1497.17 367.38 1498.85 369.165 1500.72 370.73C1499.7 368.517 1498.43 366.424 1496.95 364.489ZM1590.76 410.088C1589.31 408.119 1587.63 406.324 1585.77 404.739C1586.77 406.972 1588.04 409.079 1589.54 411.012C1590.98 412.978 1592.65 414.763 1594.52 416.328C1593.51 414.109 1592.25 412.015 1590.76 410.088ZM1550.44 421.611C1548.48 423.053 1546.69 424.727 1545.13 426.597C1547.35 425.589 1549.44 424.326 1551.37 422.833C1553.33 421.39 1555.12 419.717 1556.68 417.847C1554.46 418.855 1552.37 420.118 1550.44 421.611ZM1611.56 431.847C1609.59 433.289 1607.81 434.963 1606.24 436.833C1608.46 435.825 1610.56 434.561 1612.48 433.069C1614.45 431.626 1616.23 429.952 1617.8 428.083C1615.58 429.101 1613.48 430.375 1611.56 431.88V431.847ZM1542.02 352.273C1540.05 353.735 1538.26 355.419 1536.67 357.291C1538.9 356.279 1541.01 355.016 1542.95 353.527C1544.91 352.073 1546.7 350.388 1548.26 348.509C1546.05 349.529 1543.96 350.792 1542.02 352.273ZM1574.68 449.578C1572.26 449.22 1569.81 449.142 1567.38 449.347C1571.97 451.014 1576.87 451.689 1581.74 451.328C1579.46 450.508 1577.09 449.954 1574.68 449.677V449.578ZM1522.51 392.588C1520.09 392.23 1517.64 392.152 1515.21 392.357C1519.8 394.056 1524.7 394.743 1529.57 394.371C1527.29 393.541 1524.92 392.976 1522.51 392.687V392.588ZM1540.31 447.465C1539.71 449.006 1539.26 450.597 1538.95 452.219L1540.27 452.913C1540.46 451.135 1540.47 449.343 1540.31 447.564V447.465ZM1563.22 375.385C1561.52 379.984 1560.84 384.894 1561.21 389.781C1562.86 385.172 1563.55 380.272 1563.22 375.385Z" fill="white"/>
<path d="M1487.24 374.164C1499.69 373.206 1550.44 367.56 1561.31 365.546C1562.06 365.546 1562.16 364.919 1561.31 364.952C1536.45 366.486 1511.71 369.396 1487.18 373.669C1487.13 373.693 1487.09 373.733 1487.06 373.781C1487.04 373.83 1487.03 373.885 1487.04 373.94C1487.04 373.994 1487.07 374.045 1487.1 374.085C1487.14 374.126 1487.19 374.153 1487.24 374.164Z" fill="#263238"/>
<path d="M1681.95 509.176C1674.45 506.621 1667.16 503.498 1660.13 499.831C1653.05 496.307 1646.2 492.337 1639.62 487.945C1647.01 490.735 1654.23 493.943 1661.25 497.553C1664.75 499.369 1668.25 501.185 1671.69 503.1C1675.12 505.015 1678.55 507.129 1681.95 509.176Z" fill="#263238"/>
<path d="M1659.93 498.346C1657.39 498.168 1654.89 497.68 1652.47 496.893C1650.03 496.152 1647.69 495.121 1645.5 493.822C1648.04 494.011 1650.55 494.51 1652.96 495.308C1655.4 496.045 1657.74 497.065 1659.93 498.346Z" fill="#263238"/>
<path d="M1687.3 467.639C1683.74 465.642 1680.41 463.238 1677.4 460.474C1674.35 457.81 1671.62 454.796 1669.28 451.493C1672.84 453.49 1676.17 455.894 1679.18 458.658C1682.23 461.322 1684.96 464.336 1687.3 467.639Z" fill="#263238"/>
</svg>
